G04 #@! TF.GenerationSoftware,KiCad,Pcbnew,(7.0.0)*
G04 #@! TF.CreationDate,2023-03-01T15:25:45+01:00*
G04 #@! TF.ProjectId,VR-Shield,56522d53-6869-4656-9c64-2e6b69636164,v02*
G04 #@! TF.SameCoordinates,Original*
G04 #@! TF.FileFunction,Copper,L1,Top*
G04 #@! TF.FilePolarity,Positive*
%FSLAX46Y46*%
G04 Gerber Fmt 4.6, Leading zero omitted, Abs format (unit mm)*
G04 Created by KiCad (PCBNEW (7.0.0)) date 2023-03-01 15:25:45*
%MOMM*%
%LPD*%
G01*
G04 APERTURE LIST*
G04 Aperture macros list*
%AMRoundRect*
0 Rectangle with rounded corners*
0 $1 Rounding radius*
0 $2 $3 $4 $5 $6 $7 $8 $9 X,Y pos of 4 corners*
0 Add a 4 corners polygon primitive as box body*
4,1,4,$2,$3,$4,$5,$6,$7,$8,$9,$2,$3,0*
0 Add four circle primitives for the rounded corners*
1,1,$1+$1,$2,$3*
1,1,$1+$1,$4,$5*
1,1,$1+$1,$6,$7*
1,1,$1+$1,$8,$9*
0 Add four rect primitives between the rounded corners*
20,1,$1+$1,$2,$3,$4,$5,0*
20,1,$1+$1,$4,$5,$6,$7,0*
20,1,$1+$1,$6,$7,$8,$9,0*
20,1,$1+$1,$8,$9,$2,$3,0*%
G04 Aperture macros list end*
G04 #@! TA.AperFunction,NonConductor*
%ADD10C,0.017606*%
G04 #@! TD*
G04 #@! TA.AperFunction,NonConductor*
%ADD11C,0.100000*%
G04 #@! TD*
%ADD12C,0.300000*%
G04 #@! TA.AperFunction,NonConductor*
%ADD13C,0.300000*%
G04 #@! TD*
G04 #@! TA.AperFunction,SMDPad,CuDef*
%ADD14RoundRect,0.150000X-0.587500X-0.150000X0.587500X-0.150000X0.587500X0.150000X-0.587500X0.150000X0*%
G04 #@! TD*
G04 #@! TA.AperFunction,FiducialPad,Global*
%ADD15C,0.750000*%
G04 #@! TD*
G04 #@! TA.AperFunction,ComponentPad*
%ADD16R,1.200000X2.000000*%
G04 #@! TD*
G04 #@! TA.AperFunction,ComponentPad*
%ADD17O,1.200000X2.000000*%
G04 #@! TD*
G04 #@! TA.AperFunction,SMDPad,CuDef*
%ADD18RoundRect,0.250000X-0.450000X0.350000X-0.450000X-0.350000X0.450000X-0.350000X0.450000X0.350000X0*%
G04 #@! TD*
G04 #@! TA.AperFunction,SMDPad,CuDef*
%ADD19RoundRect,0.250000X0.350000X0.450000X-0.350000X0.450000X-0.350000X-0.450000X0.350000X-0.450000X0*%
G04 #@! TD*
G04 #@! TA.AperFunction,SMDPad,CuDef*
%ADD20RoundRect,0.250000X0.325000X0.450000X-0.325000X0.450000X-0.325000X-0.450000X0.325000X-0.450000X0*%
G04 #@! TD*
G04 #@! TA.AperFunction,SMDPad,CuDef*
%ADD21RoundRect,0.150000X0.150000X-0.825000X0.150000X0.825000X-0.150000X0.825000X-0.150000X-0.825000X0*%
G04 #@! TD*
G04 #@! TA.AperFunction,ComponentPad*
%ADD22R,1.300000X1.300000*%
G04 #@! TD*
G04 #@! TA.AperFunction,ComponentPad*
%ADD23C,1.300000*%
G04 #@! TD*
G04 #@! TA.AperFunction,ComponentPad*
%ADD24C,1.397000*%
G04 #@! TD*
G04 #@! TA.AperFunction,ViaPad*
%ADD25C,1.300000*%
G04 #@! TD*
G04 #@! TA.AperFunction,Conductor*
%ADD26C,0.500000*%
G04 #@! TD*
G04 #@! TA.AperFunction,Conductor*
%ADD27C,1.000000*%
G04 #@! TD*
%ADD28C,0.350000*%
G04 APERTURE END LIST*
D10*
G36*
X44069000Y-23749000D02*
G01*
X44069616Y-23749864D01*
X44070079Y-23751599D01*
X44070557Y-23757588D01*
X44070456Y-23766790D01*
X44069798Y-23779025D01*
X44066897Y-23811879D01*
X44062031Y-23854719D01*
X44055378Y-23906117D01*
X44047114Y-23964642D01*
X44037415Y-24028863D01*
X44026458Y-24097350D01*
X43970360Y-24443567D01*
X43913971Y-24798377D01*
X43808862Y-25462270D01*
X43738029Y-25898780D01*
X43709552Y-26074241D01*
X43666313Y-26347755D01*
X43569089Y-26959658D01*
X43516639Y-27274375D01*
X43515896Y-27276945D01*
X43514675Y-27279726D01*
X43512971Y-27282723D01*
X43510778Y-27285939D01*
X43508092Y-27289379D01*
X43504905Y-27293045D01*
X43501213Y-27296943D01*
X43497011Y-27301077D01*
X43487051Y-27310066D01*
X43474981Y-27320044D01*
X43460758Y-27331043D01*
X43444336Y-27343095D01*
X43425671Y-27356232D01*
X43404719Y-27370486D01*
X43381436Y-27385888D01*
X43355778Y-27402471D01*
X43327699Y-27420267D01*
X43297156Y-27439306D01*
X43264105Y-27459622D01*
X43228500Y-27481246D01*
X43118427Y-27547031D01*
X43025993Y-27600887D01*
X42960899Y-27637267D01*
X42941636Y-27647171D01*
X42932846Y-27650626D01*
X42931433Y-27649821D01*
X42929908Y-27647404D01*
X42926519Y-27637715D01*
X42922676Y-27621529D01*
X42918374Y-27598814D01*
X42908379Y-27533671D01*
X42896504Y-27442034D01*
X42882718Y-27323652D01*
X42866991Y-27178273D01*
X42849292Y-27005646D01*
X42829589Y-26805518D01*
X42794297Y-26456778D01*
X42761222Y-26157831D01*
X42734356Y-25942886D01*
X42724498Y-25877605D01*
X42717689Y-25846153D01*
X42716812Y-25844131D01*
X42715924Y-25842516D01*
X42715024Y-25841308D01*
X42714113Y-25840508D01*
X42713654Y-25840261D01*
X42713191Y-25840117D01*
X42712725Y-25840075D01*
X42712257Y-25840135D01*
X42711785Y-25840299D01*
X42711310Y-25840564D01*
X42710352Y-25841404D01*
X42709381Y-25842656D01*
X42708397Y-25844321D01*
X42707400Y-25846400D01*
X42706390Y-25848893D01*
X42705367Y-25851801D01*
X42704330Y-25855125D01*
X42703279Y-25858866D01*
X42702214Y-25863024D01*
X42700041Y-25872597D01*
X42697809Y-25883850D01*
X42695517Y-25896789D01*
X42693162Y-25911421D01*
X42690743Y-25927753D01*
X42688258Y-25945790D01*
X42685705Y-25965539D01*
X42683082Y-25987006D01*
X42636772Y-26374160D01*
X42613448Y-26580273D01*
X42602155Y-26687246D01*
X42593025Y-26779113D01*
X42567067Y-27029678D01*
X42530449Y-27360122D01*
X42477249Y-27835655D01*
X42475202Y-27853745D01*
X42472794Y-27871351D01*
X42470114Y-27888034D01*
X42467253Y-27903356D01*
X42464301Y-27916879D01*
X42461345Y-27928165D01*
X42459895Y-27932832D01*
X42458478Y-27936776D01*
X42457105Y-27939942D01*
X42455787Y-27942275D01*
X42453460Y-27944772D01*
X42449139Y-27948424D01*
X42442933Y-27953163D01*
X42434953Y-27958916D01*
X42414109Y-27973179D01*
X42387489Y-27990645D01*
X42355972Y-28010742D01*
X42320439Y-28032901D01*
X42281769Y-28056551D01*
X42240844Y-28081123D01*
X42158755Y-28130218D01*
X42084918Y-28174911D01*
X42027421Y-28210266D01*
X41994354Y-28231345D01*
X41970908Y-28246768D01*
X41948427Y-28260707D01*
X41927577Y-28272825D01*
X41909025Y-28282784D01*
X41893436Y-28290243D01*
X41886960Y-28292930D01*
X41881476Y-28294866D01*
X41877065Y-28296007D01*
X41873811Y-28296311D01*
X41872645Y-28296137D01*
X41871798Y-28295737D01*
X41871283Y-28295108D01*
X41871109Y-28294242D01*
X41871116Y-28294257D01*
X41744764Y-27601041D01*
X41590271Y-26770301D01*
X41574894Y-26689915D01*
X41555088Y-26583675D01*
X41482895Y-26189292D01*
X41429406Y-25900381D01*
X41379699Y-25638450D01*
X41332702Y-25395713D01*
X41544693Y-25267173D01*
X41712513Y-25166498D01*
X41777652Y-25128176D01*
X41818306Y-25104957D01*
X41830803Y-25097926D01*
X41842694Y-25090844D01*
X41853702Y-25083904D01*
X41863549Y-25077298D01*
X41871959Y-25071220D01*
X41875538Y-25068438D01*
X41878654Y-25065861D01*
X41881273Y-25063512D01*
X41883359Y-25061415D01*
X41884878Y-25059594D01*
X41885795Y-25058074D01*
X41886122Y-25057394D01*
X41886500Y-25056723D01*
X41886929Y-25056062D01*
X41887407Y-25055411D01*
X41887931Y-25054772D01*
X41888501Y-25054145D01*
X41889113Y-25053531D01*
X41889768Y-25052932D01*
X41890461Y-25052347D01*
X41891193Y-25051778D01*
X41891961Y-25051225D01*
X41892764Y-25050690D01*
X41893599Y-25050172D01*
X41894465Y-25049674D01*
X41896282Y-25048737D01*
X41898201Y-25047886D01*
X41900207Y-25047126D01*
X41902288Y-25046466D01*
X41904427Y-25045911D01*
X41906611Y-25045468D01*
X41908826Y-25045143D01*
X41909941Y-25045027D01*
X41911058Y-25044943D01*
X41912175Y-25044893D01*
X41913292Y-25044875D01*
X41915229Y-25045013D01*
X41916171Y-25045205D01*
X41917097Y-25045496D01*
X41918009Y-25045899D01*
X41918909Y-25046428D01*
X41919800Y-25047096D01*
X41920684Y-25047915D01*
X41921562Y-25048899D01*
X41922437Y-25050062D01*
X41923310Y-25051415D01*
X41924183Y-25052973D01*
X41925059Y-25054747D01*
X41925940Y-25056753D01*
X41926827Y-25059001D01*
X41927723Y-25061507D01*
X41929549Y-25067339D01*
X41931434Y-25074356D01*
X41933393Y-25082661D01*
X41935443Y-25092359D01*
X41937601Y-25103555D01*
X41939881Y-25116354D01*
X41942301Y-25130861D01*
X41944877Y-25147180D01*
X41947625Y-25165417D01*
X41950560Y-25185676D01*
X41953700Y-25208061D01*
X41957059Y-25232679D01*
X41964504Y-25289030D01*
X41973023Y-25355565D01*
X41982746Y-25433125D01*
X41993803Y-25522547D01*
X42020431Y-25740333D01*
X42051191Y-25985223D01*
X42088989Y-26277320D01*
X42122754Y-26543958D01*
X42135766Y-26653557D01*
X42143798Y-26727638D01*
X42148571Y-26770818D01*
X42153939Y-26807837D01*
X42156814Y-26823934D01*
X42159799Y-26838368D01*
X42162880Y-26851097D01*
X42166046Y-26862082D01*
X42169282Y-26871280D01*
X42172576Y-26878652D01*
X42175915Y-26884155D01*
X42179285Y-26887749D01*
X42180978Y-26888818D01*
X42182674Y-26889394D01*
X42184372Y-26889472D01*
X42186070Y-26889047D01*
X42187765Y-26888114D01*
X42189457Y-26886668D01*
X42192825Y-26882217D01*
X42193876Y-26879678D01*
X42195106Y-26875138D01*
X42198046Y-26860506D01*
X42201524Y-26839225D01*
X42205417Y-26812195D01*
X42209606Y-26780321D01*
X42213967Y-26744505D01*
X42218381Y-26705649D01*
X42222725Y-26664657D01*
X42285713Y-26103016D01*
X42409286Y-25044868D01*
X42422639Y-24928241D01*
X42428316Y-24881732D01*
X42434083Y-24841882D01*
X42440507Y-24807782D01*
X42448153Y-24778526D01*
X42452613Y-24765430D01*
X42457590Y-24753204D01*
X42463157Y-24741735D01*
X42469384Y-24730910D01*
X42476342Y-24720614D01*
X42484101Y-24710734D01*
X42492733Y-24701157D01*
X42502309Y-24691769D01*
X42524574Y-24673107D01*
X42551464Y-24653839D01*
X42583544Y-24633059D01*
X42621382Y-24609857D01*
X42716598Y-24552558D01*
X42796090Y-24504521D01*
X42857346Y-24468238D01*
X42902888Y-24442600D01*
X42920554Y-24433427D01*
X42935238Y-24426499D01*
X42947253Y-24421677D01*
X42956915Y-24418823D01*
X42964540Y-24417798D01*
X42970442Y-24418464D01*
X42974938Y-24420681D01*
X42978341Y-24424311D01*
X42980967Y-24429216D01*
X42983131Y-24435256D01*
X42986242Y-24449417D01*
X42990638Y-24475479D01*
X42996118Y-24511953D01*
X43002478Y-24557350D01*
X43017029Y-24668955D01*
X43032669Y-24798377D01*
X43069781Y-25111166D01*
X43105766Y-25405799D01*
X43160737Y-25853622D01*
X43175030Y-25979921D01*
X43184494Y-26074828D01*
X43188582Y-26116913D01*
X43192456Y-26150603D01*
X43196341Y-26176754D01*
X43198358Y-26187272D01*
X43200462Y-26196226D01*
X43202682Y-26203726D01*
X43205045Y-26209878D01*
X43207580Y-26214788D01*
X43210316Y-26218566D01*
X43213280Y-26221317D01*
X43216500Y-26223149D01*
X43220005Y-26224170D01*
X43223823Y-26224487D01*
X43224673Y-26224136D01*
X43225589Y-26223094D01*
X43227609Y-26219007D01*
X43229861Y-26212363D01*
X43232321Y-26203301D01*
X43234966Y-26191958D01*
X43237772Y-26178471D01*
X43243775Y-26145618D01*
X43250145Y-26105842D01*
X43256695Y-26060245D01*
X43263240Y-26009929D01*
X43269592Y-25955993D01*
X43329640Y-25445173D01*
X43445999Y-24496993D01*
X43477703Y-24232721D01*
X43487348Y-24146180D01*
X43490890Y-24107093D01*
X43490988Y-24105666D01*
X43491278Y-24104161D01*
X43491756Y-24102582D01*
X43492417Y-24100934D01*
X43493256Y-24099220D01*
X43494269Y-24097445D01*
X43495449Y-24095612D01*
X43496794Y-24093726D01*
X43498297Y-24091791D01*
X43499955Y-24089811D01*
X43503714Y-24085732D01*
X43508031Y-24081522D01*
X43512869Y-24077214D01*
X43518190Y-24072840D01*
X43523955Y-24068434D01*
X43530125Y-24064028D01*
X43536663Y-24059656D01*
X43543529Y-24055349D01*
X43550686Y-24051140D01*
X43558096Y-24047064D01*
X43565719Y-24043151D01*
X43580390Y-24035702D01*
X43593383Y-24028736D01*
X43604462Y-24022407D01*
X43613392Y-24016868D01*
X43616979Y-24014443D01*
X43619940Y-24012273D01*
X43622247Y-24010378D01*
X43623871Y-24008776D01*
X43624781Y-24007487D01*
X43624959Y-24006966D01*
X43624949Y-24006531D01*
X43624745Y-24006183D01*
X43624345Y-24005925D01*
X43622940Y-24005691D01*
X43622146Y-24005603D01*
X43621579Y-24005393D01*
X43621235Y-24005063D01*
X43621145Y-24004854D01*
X43621110Y-24004616D01*
X43621199Y-24004055D01*
X43621499Y-24003384D01*
X43622004Y-24002606D01*
X43622711Y-24001723D01*
X43623616Y-24000739D01*
X43624714Y-23999657D01*
X43627472Y-23997210D01*
X43630952Y-23994407D01*
X43635120Y-23991274D01*
X43639942Y-23987835D01*
X43645383Y-23984114D01*
X43651410Y-23980136D01*
X43657989Y-23975926D01*
X43665085Y-23971509D01*
X43672665Y-23966909D01*
X43680695Y-23962151D01*
X43689140Y-23957259D01*
X43789851Y-23898607D01*
X43914291Y-23824996D01*
X43942958Y-23808239D01*
X43970228Y-23792932D01*
X43995467Y-23779387D01*
X44018041Y-23767915D01*
X44037316Y-23758829D01*
X44052657Y-23752439D01*
X44058654Y-23750354D01*
X44063429Y-23749059D01*
X44066905Y-23748595D01*
X44069000Y-23749000D01*
G37*
X44069000Y-23749000D02*
X44069616Y-23749864D01*
X44070079Y-23751599D01*
X44070557Y-23757588D01*
X44070456Y-23766790D01*
X44069798Y-23779025D01*
X44066897Y-23811879D01*
X44062031Y-23854719D01*
X44055378Y-23906117D01*
X44047114Y-23964642D01*
X44037415Y-24028863D01*
X44026458Y-24097350D01*
X43970360Y-24443567D01*
X43913971Y-24798377D01*
X43808862Y-25462270D01*
X43738029Y-25898780D01*
X43709552Y-26074241D01*
X43666313Y-26347755D01*
X43569089Y-26959658D01*
X43516639Y-27274375D01*
X43515896Y-27276945D01*
X43514675Y-27279726D01*
X43512971Y-27282723D01*
X43510778Y-27285939D01*
X43508092Y-27289379D01*
X43504905Y-27293045D01*
X43501213Y-27296943D01*
X43497011Y-27301077D01*
X43487051Y-27310066D01*
X43474981Y-27320044D01*
X43460758Y-27331043D01*
X43444336Y-27343095D01*
X43425671Y-27356232D01*
X43404719Y-27370486D01*
X43381436Y-27385888D01*
X43355778Y-27402471D01*
X43327699Y-27420267D01*
X43297156Y-27439306D01*
X43264105Y-27459622D01*
X43228500Y-27481246D01*
X43118427Y-27547031D01*
X43025993Y-27600887D01*
X42960899Y-27637267D01*
X42941636Y-27647171D01*
X42932846Y-27650626D01*
X42931433Y-27649821D01*
X42929908Y-27647404D01*
X42926519Y-27637715D01*
X42922676Y-27621529D01*
X42918374Y-27598814D01*
X42908379Y-27533671D01*
X42896504Y-27442034D01*
X42882718Y-27323652D01*
X42866991Y-27178273D01*
X42849292Y-27005646D01*
X42829589Y-26805518D01*
X42794297Y-26456778D01*
X42761222Y-26157831D01*
X42734356Y-25942886D01*
X42724498Y-25877605D01*
X42717689Y-25846153D01*
X42716812Y-25844131D01*
X42715924Y-25842516D01*
X42715024Y-25841308D01*
X42714113Y-25840508D01*
X42713654Y-25840261D01*
X42713191Y-25840117D01*
X42712725Y-25840075D01*
X42712257Y-25840135D01*
X42711785Y-25840299D01*
X42711310Y-25840564D01*
X42710352Y-25841404D01*
X42709381Y-25842656D01*
X42708397Y-25844321D01*
X42707400Y-25846400D01*
X42706390Y-25848893D01*
X42705367Y-25851801D01*
X42704330Y-25855125D01*
X42703279Y-25858866D01*
X42702214Y-25863024D01*
X42700041Y-25872597D01*
X42697809Y-25883850D01*
X42695517Y-25896789D01*
X42693162Y-25911421D01*
X42690743Y-25927753D01*
X42688258Y-25945790D01*
X42685705Y-25965539D01*
X42683082Y-25987006D01*
X42636772Y-26374160D01*
X42613448Y-26580273D01*
X42602155Y-26687246D01*
X42593025Y-26779113D01*
X42567067Y-27029678D01*
X42530449Y-27360122D01*
X42477249Y-27835655D01*
X42475202Y-27853745D01*
X42472794Y-27871351D01*
X42470114Y-27888034D01*
X42467253Y-27903356D01*
X42464301Y-27916879D01*
X42461345Y-27928165D01*
X42459895Y-27932832D01*
X42458478Y-27936776D01*
X42457105Y-27939942D01*
X42455787Y-27942275D01*
X42453460Y-27944772D01*
X42449139Y-27948424D01*
X42442933Y-27953163D01*
X42434953Y-27958916D01*
X42414109Y-27973179D01*
X42387489Y-27990645D01*
X42355972Y-28010742D01*
X42320439Y-28032901D01*
X42281769Y-28056551D01*
X42240844Y-28081123D01*
X42158755Y-28130218D01*
X42084918Y-28174911D01*
X42027421Y-28210266D01*
X41994354Y-28231345D01*
X41970908Y-28246768D01*
X41948427Y-28260707D01*
X41927577Y-28272825D01*
X41909025Y-28282784D01*
X41893436Y-28290243D01*
X41886960Y-28292930D01*
X41881476Y-28294866D01*
X41877065Y-28296007D01*
X41873811Y-28296311D01*
X41872645Y-28296137D01*
X41871798Y-28295737D01*
X41871283Y-28295108D01*
X41871109Y-28294242D01*
X41871116Y-28294257D01*
X41744764Y-27601041D01*
X41590271Y-26770301D01*
X41574894Y-26689915D01*
X41555088Y-26583675D01*
X41482895Y-26189292D01*
X41429406Y-25900381D01*
X41379699Y-25638450D01*
X41332702Y-25395713D01*
X41544693Y-25267173D01*
X41712513Y-25166498D01*
X41777652Y-25128176D01*
X41818306Y-25104957D01*
X41830803Y-25097926D01*
X41842694Y-25090844D01*
X41853702Y-25083904D01*
X41863549Y-25077298D01*
X41871959Y-25071220D01*
X41875538Y-25068438D01*
X41878654Y-25065861D01*
X41881273Y-25063512D01*
X41883359Y-25061415D01*
X41884878Y-25059594D01*
X41885795Y-25058074D01*
X41886122Y-25057394D01*
X41886500Y-25056723D01*
X41886929Y-25056062D01*
X41887407Y-25055411D01*
X41887931Y-25054772D01*
X41888501Y-25054145D01*
X41889113Y-25053531D01*
X41889768Y-25052932D01*
X41890461Y-25052347D01*
X41891193Y-25051778D01*
X41891961Y-25051225D01*
X41892764Y-25050690D01*
X41893599Y-25050172D01*
X41894465Y-25049674D01*
X41896282Y-25048737D01*
X41898201Y-25047886D01*
X41900207Y-25047126D01*
X41902288Y-25046466D01*
X41904427Y-25045911D01*
X41906611Y-25045468D01*
X41908826Y-25045143D01*
X41909941Y-25045027D01*
X41911058Y-25044943D01*
X41912175Y-25044893D01*
X41913292Y-25044875D01*
X41915229Y-25045013D01*
X41916171Y-25045205D01*
X41917097Y-25045496D01*
X41918009Y-25045899D01*
X41918909Y-25046428D01*
X41919800Y-25047096D01*
X41920684Y-25047915D01*
X41921562Y-25048899D01*
X41922437Y-25050062D01*
X41923310Y-25051415D01*
X41924183Y-25052973D01*
X41925059Y-25054747D01*
X41925940Y-25056753D01*
X41926827Y-25059001D01*
X41927723Y-25061507D01*
X41929549Y-25067339D01*
X41931434Y-25074356D01*
X41933393Y-25082661D01*
X41935443Y-25092359D01*
X41937601Y-25103555D01*
X41939881Y-25116354D01*
X41942301Y-25130861D01*
X41944877Y-25147180D01*
X41947625Y-25165417D01*
X41950560Y-25185676D01*
X41953700Y-25208061D01*
X41957059Y-25232679D01*
X41964504Y-25289030D01*
X41973023Y-25355565D01*
X41982746Y-25433125D01*
X41993803Y-25522547D01*
X42020431Y-25740333D01*
X42051191Y-25985223D01*
X42088989Y-26277320D01*
X42122754Y-26543958D01*
X42135766Y-26653557D01*
X42143798Y-26727638D01*
X42148571Y-26770818D01*
X42153939Y-26807837D01*
X42156814Y-26823934D01*
X42159799Y-26838368D01*
X42162880Y-26851097D01*
X42166046Y-26862082D01*
X42169282Y-26871280D01*
X42172576Y-26878652D01*
X42175915Y-26884155D01*
X42179285Y-26887749D01*
X42180978Y-26888818D01*
X42182674Y-26889394D01*
X42184372Y-26889472D01*
X42186070Y-26889047D01*
X42187765Y-26888114D01*
X42189457Y-26886668D01*
X42192825Y-26882217D01*
X42193876Y-26879678D01*
X42195106Y-26875138D01*
X42198046Y-26860506D01*
X42201524Y-26839225D01*
X42205417Y-26812195D01*
X42209606Y-26780321D01*
X42213967Y-26744505D01*
X42218381Y-26705649D01*
X42222725Y-26664657D01*
X42285713Y-26103016D01*
X42409286Y-25044868D01*
X42422639Y-24928241D01*
X42428316Y-24881732D01*
X42434083Y-24841882D01*
X42440507Y-24807782D01*
X42448153Y-24778526D01*
X42452613Y-24765430D01*
X42457590Y-24753204D01*
X42463157Y-24741735D01*
X42469384Y-24730910D01*
X42476342Y-24720614D01*
X42484101Y-24710734D01*
X42492733Y-24701157D01*
X42502309Y-24691769D01*
X42524574Y-24673107D01*
X42551464Y-24653839D01*
X42583544Y-24633059D01*
X42621382Y-24609857D01*
X42716598Y-24552558D01*
X42796090Y-24504521D01*
X42857346Y-24468238D01*
X42902888Y-24442600D01*
X42920554Y-24433427D01*
X42935238Y-24426499D01*
X42947253Y-24421677D01*
X42956915Y-24418823D01*
X42964540Y-24417798D01*
X42970442Y-24418464D01*
X42974938Y-24420681D01*
X42978341Y-24424311D01*
X42980967Y-24429216D01*
X42983131Y-24435256D01*
X42986242Y-24449417D01*
X42990638Y-24475479D01*
X42996118Y-24511953D01*
X43002478Y-24557350D01*
X43017029Y-24668955D01*
X43032669Y-24798377D01*
X43069781Y-25111166D01*
X43105766Y-25405799D01*
X43160737Y-25853622D01*
X43175030Y-25979921D01*
X43184494Y-26074828D01*
X43188582Y-26116913D01*
X43192456Y-26150603D01*
X43196341Y-26176754D01*
X43198358Y-26187272D01*
X43200462Y-26196226D01*
X43202682Y-26203726D01*
X43205045Y-26209878D01*
X43207580Y-26214788D01*
X43210316Y-26218566D01*
X43213280Y-26221317D01*
X43216500Y-26223149D01*
X43220005Y-26224170D01*
X43223823Y-26224487D01*
X43224673Y-26224136D01*
X43225589Y-26223094D01*
X43227609Y-26219007D01*
X43229861Y-26212363D01*
X43232321Y-26203301D01*
X43234966Y-26191958D01*
X43237772Y-26178471D01*
X43243775Y-26145618D01*
X43250145Y-26105842D01*
X43256695Y-26060245D01*
X43263240Y-26009929D01*
X43269592Y-25955993D01*
X43329640Y-25445173D01*
X43445999Y-24496993D01*
X43477703Y-24232721D01*
X43487348Y-24146180D01*
X43490890Y-24107093D01*
X43490988Y-24105666D01*
X43491278Y-24104161D01*
X43491756Y-24102582D01*
X43492417Y-24100934D01*
X43493256Y-24099220D01*
X43494269Y-24097445D01*
X43495449Y-24095612D01*
X43496794Y-24093726D01*
X43498297Y-24091791D01*
X43499955Y-24089811D01*
X43503714Y-24085732D01*
X43508031Y-24081522D01*
X43512869Y-24077214D01*
X43518190Y-24072840D01*
X43523955Y-24068434D01*
X43530125Y-24064028D01*
X43536663Y-24059656D01*
X43543529Y-24055349D01*
X43550686Y-24051140D01*
X43558096Y-24047064D01*
X43565719Y-24043151D01*
X43580390Y-24035702D01*
X43593383Y-24028736D01*
X43604462Y-24022407D01*
X43613392Y-24016868D01*
X43616979Y-24014443D01*
X43619940Y-24012273D01*
X43622247Y-24010378D01*
X43623871Y-24008776D01*
X43624781Y-24007487D01*
X43624959Y-24006966D01*
X43624949Y-24006531D01*
X43624745Y-24006183D01*
X43624345Y-24005925D01*
X43622940Y-24005691D01*
X43622146Y-24005603D01*
X43621579Y-24005393D01*
X43621235Y-24005063D01*
X43621145Y-24004854D01*
X43621110Y-24004616D01*
X43621199Y-24004055D01*
X43621499Y-24003384D01*
X43622004Y-24002606D01*
X43622711Y-24001723D01*
X43623616Y-24000739D01*
X43624714Y-23999657D01*
X43627472Y-23997210D01*
X43630952Y-23994407D01*
X43635120Y-23991274D01*
X43639942Y-23987835D01*
X43645383Y-23984114D01*
X43651410Y-23980136D01*
X43657989Y-23975926D01*
X43665085Y-23971509D01*
X43672665Y-23966909D01*
X43680695Y-23962151D01*
X43689140Y-23957259D01*
X43789851Y-23898607D01*
X43914291Y-23824996D01*
X43942958Y-23808239D01*
X43970228Y-23792932D01*
X43995467Y-23779387D01*
X44018041Y-23767915D01*
X44037316Y-23758829D01*
X44052657Y-23752439D01*
X44058654Y-23750354D01*
X44063429Y-23749059D01*
X44066905Y-23748595D01*
X44069000Y-23749000D01*
G36*
X45700336Y-26031398D02*
G01*
X45703541Y-26032998D01*
X45714489Y-26039146D01*
X45730902Y-26048865D01*
X45752080Y-26061723D01*
X45777319Y-26077288D01*
X45805917Y-26095129D01*
X45870384Y-26135909D01*
X46012507Y-26225762D01*
X46075868Y-26265268D01*
X46123039Y-26294242D01*
X46324854Y-26420017D01*
X46686447Y-26647620D01*
X47390701Y-27090324D01*
X47624756Y-27237660D01*
X47866073Y-27391685D01*
X48126879Y-27558895D01*
X48209839Y-27611112D01*
X48284225Y-27657035D01*
X48288930Y-27660013D01*
X48293423Y-27663049D01*
X48297700Y-27666131D01*
X48301756Y-27669243D01*
X48305585Y-27672374D01*
X48309183Y-27675510D01*
X48312545Y-27678636D01*
X48315666Y-27681740D01*
X48318541Y-27684808D01*
X48321165Y-27687826D01*
X48323533Y-27690781D01*
X48325639Y-27693659D01*
X48327480Y-27696448D01*
X48329050Y-27699133D01*
X48330344Y-27701700D01*
X48331358Y-27704137D01*
X48332085Y-27706430D01*
X48332522Y-27708565D01*
X48332663Y-27710529D01*
X48332503Y-27712308D01*
X48332038Y-27713889D01*
X48331262Y-27715258D01*
X48330170Y-27716402D01*
X48328758Y-27717308D01*
X48327021Y-27717961D01*
X48324953Y-27718348D01*
X48322550Y-27718456D01*
X48319806Y-27718271D01*
X48316717Y-27717779D01*
X48313277Y-27716968D01*
X48309483Y-27715823D01*
X48305328Y-27714332D01*
X48302588Y-27713301D01*
X48300013Y-27712452D01*
X48297610Y-27711782D01*
X48295390Y-27711287D01*
X48293363Y-27710961D01*
X48291538Y-27710801D01*
X48289925Y-27710801D01*
X48288533Y-27710959D01*
X48287923Y-27711095D01*
X48287372Y-27711268D01*
X48286882Y-27711479D01*
X48286452Y-27711726D01*
X48286086Y-27712009D01*
X48285783Y-27712327D01*
X48285545Y-27712680D01*
X48285373Y-27713067D01*
X48285269Y-27713488D01*
X48285234Y-27713942D01*
X48285268Y-27714428D01*
X48285373Y-27714947D01*
X48285551Y-27715497D01*
X48285802Y-27716078D01*
X48286128Y-27716689D01*
X48286529Y-27717330D01*
X48286884Y-27718763D01*
X48286414Y-27720613D01*
X48285101Y-27722895D01*
X48282923Y-27725620D01*
X48279860Y-27728801D01*
X48275893Y-27732452D01*
X48265163Y-27741214D01*
X48250571Y-27752009D01*
X48231955Y-27764940D01*
X48209153Y-27780111D01*
X48182004Y-27797626D01*
X48150345Y-27817587D01*
X48114014Y-27840098D01*
X48026691Y-27893182D01*
X47918739Y-27957707D01*
X47788864Y-28034499D01*
X47741966Y-28061805D01*
X47704054Y-28083032D01*
X47688126Y-28091500D01*
X47674033Y-28098608D01*
X47661639Y-28104411D01*
X47650806Y-28108961D01*
X47641398Y-28112313D01*
X47633279Y-28114519D01*
X47626310Y-28115633D01*
X47620355Y-28115709D01*
X47615277Y-28114800D01*
X47610939Y-28112959D01*
X47607204Y-28110240D01*
X47603935Y-28106696D01*
X47601825Y-28104121D01*
X47599571Y-28101578D01*
X47597193Y-28099085D01*
X47594711Y-28096655D01*
X47592147Y-28094303D01*
X47589519Y-28092046D01*
X47586849Y-28089896D01*
X47584157Y-28087870D01*
X47581462Y-28085982D01*
X47578786Y-28084248D01*
X47576148Y-28082681D01*
X47573569Y-28081298D01*
X47571069Y-28080113D01*
X47568669Y-28079141D01*
X47566388Y-28078397D01*
X47564247Y-28077895D01*
X47547998Y-28070942D01*
X47517057Y-28054021D01*
X47419821Y-27995914D01*
X47289973Y-27914844D01*
X47144950Y-27822083D01*
X47002188Y-27728900D01*
X46879124Y-27646565D01*
X46793193Y-27586350D01*
X46769602Y-27568059D01*
X46761833Y-27559524D01*
X46762055Y-27558602D01*
X46762216Y-27557711D01*
X46762318Y-27556854D01*
X46762360Y-27556029D01*
X46762345Y-27555237D01*
X46762274Y-27554481D01*
X46762147Y-27553759D01*
X46761966Y-27553073D01*
X46761731Y-27552423D01*
X46761444Y-27551810D01*
X46761107Y-27551235D01*
X46760720Y-27550698D01*
X46760284Y-27550201D01*
X46759800Y-27549742D01*
X46759270Y-27549325D01*
X46758694Y-27548948D01*
X46758075Y-27548612D01*
X46757412Y-27548319D01*
X46756707Y-27548069D01*
X46755961Y-27547863D01*
X46755176Y-27547701D01*
X46754352Y-27547583D01*
X46753490Y-27547512D01*
X46752592Y-27547486D01*
X46751659Y-27547508D01*
X46750691Y-27547576D01*
X46749691Y-27547694D01*
X46748658Y-27547860D01*
X46747595Y-27548075D01*
X46746502Y-27548341D01*
X46745381Y-27548658D01*
X46744232Y-27549026D01*
X46742984Y-27549342D01*
X46741572Y-27549544D01*
X46740001Y-27549633D01*
X46738278Y-27549611D01*
X46734399Y-27549245D01*
X46729980Y-27548462D01*
X46725069Y-27547281D01*
X46719714Y-27545720D01*
X46713961Y-27543795D01*
X46707859Y-27541524D01*
X46701453Y-27538925D01*
X46694792Y-27536016D01*
X46687922Y-27532814D01*
X46680891Y-27529336D01*
X46673746Y-27525601D01*
X46666534Y-27521625D01*
X46659303Y-27517426D01*
X46652099Y-27513023D01*
X46582527Y-27469322D01*
X46493637Y-27518623D01*
X46391903Y-27577329D01*
X46231371Y-27672023D01*
X46058997Y-27774842D01*
X45921737Y-27857925D01*
X45878891Y-27884223D01*
X45923919Y-27921325D01*
X45935344Y-27930214D01*
X45950597Y-27941287D01*
X45969016Y-27954101D01*
X45989938Y-27968215D01*
X46012703Y-27983188D01*
X46036647Y-27998577D01*
X46061109Y-28013941D01*
X46085426Y-28028838D01*
X46147973Y-28067282D01*
X46232176Y-28119939D01*
X46327010Y-28179866D01*
X46421447Y-28240119D01*
X46616232Y-28364478D01*
X46776237Y-28465652D01*
X46803854Y-28483427D01*
X46828667Y-28500372D01*
X46850269Y-28516145D01*
X46859738Y-28523485D01*
X46868250Y-28530403D01*
X46875756Y-28536858D01*
X46882203Y-28542806D01*
X46887541Y-28548204D01*
X46891719Y-28553009D01*
X46894685Y-28557180D01*
X46896389Y-28560672D01*
X46896752Y-28562151D01*
X46896779Y-28563444D01*
X46896466Y-28564546D01*
X46895805Y-28565452D01*
X46861477Y-28588150D01*
X46781040Y-28638214D01*
X46543834Y-28782909D01*
X46308174Y-28924480D01*
X46229668Y-28970638D01*
X46198043Y-28987869D01*
X46196986Y-28987411D01*
X46194793Y-28986188D01*
X46187244Y-28981605D01*
X46175884Y-28974434D01*
X46161203Y-28964994D01*
X46123830Y-28940569D01*
X46079033Y-28910865D01*
X46079055Y-28911140D01*
X45915149Y-28805360D01*
X45622551Y-28619207D01*
X44975685Y-28211517D01*
X44573700Y-27958244D01*
X44177559Y-27709182D01*
X43976542Y-27583530D01*
X43789211Y-27464308D01*
X43647513Y-27372053D01*
X43603761Y-27342455D01*
X43583397Y-27327300D01*
X43581914Y-27325711D01*
X43580717Y-27324067D01*
X43579816Y-27322363D01*
X43579218Y-27320590D01*
X43578935Y-27318740D01*
X43578975Y-27316806D01*
X43579348Y-27314779D01*
X43580062Y-27312653D01*
X43581128Y-27310420D01*
X43582555Y-27308071D01*
X43584352Y-27305599D01*
X43586529Y-27302997D01*
X43589095Y-27300256D01*
X43592059Y-27297369D01*
X43595431Y-27294328D01*
X43599220Y-27291126D01*
X43603436Y-27287754D01*
X43608087Y-27284205D01*
X43613184Y-27280471D01*
X43618736Y-27276545D01*
X43624751Y-27272418D01*
X43631241Y-27268084D01*
X43645677Y-27258760D01*
X43662121Y-27248512D01*
X43680646Y-27237277D01*
X43701328Y-27224994D01*
X43724243Y-27211601D01*
X43792321Y-27171817D01*
X43857328Y-27133388D01*
X43911901Y-27100692D01*
X43948677Y-27078109D01*
X43983027Y-27056795D01*
X44031004Y-27027525D01*
X44086250Y-26994157D01*
X44142410Y-26960548D01*
X44274528Y-26881950D01*
X44573768Y-27073303D01*
X44816138Y-27226917D01*
X44914017Y-27288017D01*
X44978645Y-27327522D01*
X45000044Y-27340422D01*
X45020355Y-27352965D01*
X45039109Y-27364844D01*
X45055835Y-27375747D01*
X45070066Y-27385366D01*
X45081331Y-27393390D01*
X45089160Y-27399511D01*
X45091641Y-27401761D01*
X45093086Y-27403419D01*
X45094556Y-27405393D01*
X45096333Y-27407431D01*
X45100733Y-27411660D01*
X45106150Y-27416042D01*
X45112443Y-27420510D01*
X45119474Y-27424999D01*
X45127105Y-27429442D01*
X45135197Y-27433774D01*
X45143612Y-27437929D01*
X45152210Y-27441842D01*
X45160853Y-27445447D01*
X45169403Y-27448677D01*
X45177721Y-27451468D01*
X45185669Y-27453753D01*
X45193107Y-27455466D01*
X45199898Y-27456543D01*
X45203007Y-27456821D01*
X45205902Y-27456916D01*
X45209631Y-27456317D01*
X45215159Y-27454558D01*
X45222375Y-27451698D01*
X45231170Y-27447798D01*
X45241434Y-27442916D01*
X45253057Y-27437112D01*
X45279941Y-27422974D01*
X45310946Y-27405858D01*
X45345192Y-27386238D01*
X45381802Y-27364589D01*
X45419899Y-27341384D01*
X45596077Y-27233315D01*
X45757194Y-27135665D01*
X45812951Y-27102391D01*
X45834841Y-27088939D01*
X45852720Y-27077147D01*
X45860152Y-27071766D01*
X45866577Y-27066670D01*
X45871992Y-27061816D01*
X45876397Y-27057161D01*
X45879789Y-27052662D01*
X45882168Y-27048274D01*
X45883530Y-27043956D01*
X45883875Y-27039664D01*
X45883202Y-27035353D01*
X45881507Y-27030982D01*
X45878791Y-27026507D01*
X45875050Y-27021884D01*
X45870284Y-27017070D01*
X45864490Y-27012022D01*
X45857668Y-27006697D01*
X45849815Y-27001052D01*
X45831011Y-26988625D01*
X45808065Y-26974396D01*
X45749694Y-26939147D01*
X45707885Y-26913430D01*
X45656456Y-26881304D01*
X45601931Y-26846859D01*
X45550834Y-26814185D01*
X45405362Y-26721830D01*
X45216316Y-26603416D01*
X45058941Y-26504925D01*
X45009552Y-26473652D01*
X44989616Y-26460594D01*
X44989129Y-26459551D01*
X44989454Y-26458132D01*
X44990541Y-26456363D01*
X44992341Y-26454272D01*
X44997884Y-26449238D01*
X45005691Y-26443252D01*
X45015366Y-26436539D01*
X45026518Y-26429322D01*
X45038753Y-26421824D01*
X45051677Y-26414269D01*
X45064898Y-26406880D01*
X45078021Y-26399881D01*
X45090653Y-26393496D01*
X45102402Y-26387947D01*
X45112873Y-26383459D01*
X45121674Y-26380255D01*
X45128411Y-26378559D01*
X45130882Y-26378345D01*
X45132690Y-26378593D01*
X45133370Y-26378763D01*
X45134042Y-26378898D01*
X45134703Y-26378999D01*
X45135353Y-26379065D01*
X45135993Y-26379098D01*
X45136619Y-26379098D01*
X45137233Y-26379065D01*
X45137833Y-26378999D01*
X45138417Y-26378901D01*
X45138987Y-26378771D01*
X45139539Y-26378609D01*
X45140075Y-26378417D01*
X45140592Y-26378193D01*
X45141091Y-26377940D01*
X45141569Y-26377656D01*
X45142027Y-26377343D01*
X45142464Y-26377000D01*
X45142879Y-26376628D01*
X45143270Y-26376228D01*
X45143638Y-26375799D01*
X45143981Y-26375343D01*
X45144298Y-26374859D01*
X45144589Y-26374349D01*
X45144853Y-26373811D01*
X45145089Y-26373247D01*
X45145297Y-26372657D01*
X45145474Y-26372041D01*
X45145621Y-26371400D01*
X45145737Y-26370734D01*
X45145821Y-26370044D01*
X45145872Y-26369329D01*
X45145889Y-26368591D01*
X45145987Y-26367791D01*
X45146277Y-26366897D01*
X45146755Y-26365910D01*
X45147416Y-26364835D01*
X45148255Y-26363675D01*
X45149267Y-26362433D01*
X45150448Y-26361113D01*
X45151793Y-26359719D01*
X45154954Y-26356721D01*
X45158712Y-26353467D01*
X45163030Y-26349985D01*
X45167868Y-26346302D01*
X45173189Y-26342448D01*
X45178953Y-26338448D01*
X45185124Y-26334333D01*
X45191661Y-26330129D01*
X45198528Y-26325864D01*
X45205685Y-26321567D01*
X45213095Y-26317266D01*
X45220718Y-26312988D01*
X45265407Y-26287470D01*
X45331762Y-26248490D01*
X45410829Y-26201334D01*
X45493652Y-26151290D01*
X45571127Y-26104544D01*
X45635623Y-26066246D01*
X45680410Y-26040362D01*
X45693310Y-26033312D01*
X45698761Y-26030853D01*
X45700336Y-26031398D01*
G37*
X45700336Y-26031398D02*
X45703541Y-26032998D01*
X45714489Y-26039146D01*
X45730902Y-26048865D01*
X45752080Y-26061723D01*
X45777319Y-26077288D01*
X45805917Y-26095129D01*
X45870384Y-26135909D01*
X46012507Y-26225762D01*
X46075868Y-26265268D01*
X46123039Y-26294242D01*
X46324854Y-26420017D01*
X46686447Y-26647620D01*
X47390701Y-27090324D01*
X47624756Y-27237660D01*
X47866073Y-27391685D01*
X48126879Y-27558895D01*
X48209839Y-27611112D01*
X48284225Y-27657035D01*
X48288930Y-27660013D01*
X48293423Y-27663049D01*
X48297700Y-27666131D01*
X48301756Y-27669243D01*
X48305585Y-27672374D01*
X48309183Y-27675510D01*
X48312545Y-27678636D01*
X48315666Y-27681740D01*
X48318541Y-27684808D01*
X48321165Y-27687826D01*
X48323533Y-27690781D01*
X48325639Y-27693659D01*
X48327480Y-27696448D01*
X48329050Y-27699133D01*
X48330344Y-27701700D01*
X48331358Y-27704137D01*
X48332085Y-27706430D01*
X48332522Y-27708565D01*
X48332663Y-27710529D01*
X48332503Y-27712308D01*
X48332038Y-27713889D01*
X48331262Y-27715258D01*
X48330170Y-27716402D01*
X48328758Y-27717308D01*
X48327021Y-27717961D01*
X48324953Y-27718348D01*
X48322550Y-27718456D01*
X48319806Y-27718271D01*
X48316717Y-27717779D01*
X48313277Y-27716968D01*
X48309483Y-27715823D01*
X48305328Y-27714332D01*
X48302588Y-27713301D01*
X48300013Y-27712452D01*
X48297610Y-27711782D01*
X48295390Y-27711287D01*
X48293363Y-27710961D01*
X48291538Y-27710801D01*
X48289925Y-27710801D01*
X48288533Y-27710959D01*
X48287923Y-27711095D01*
X48287372Y-27711268D01*
X48286882Y-27711479D01*
X48286452Y-27711726D01*
X48286086Y-27712009D01*
X48285783Y-27712327D01*
X48285545Y-27712680D01*
X48285373Y-27713067D01*
X48285269Y-27713488D01*
X48285234Y-27713942D01*
X48285268Y-27714428D01*
X48285373Y-27714947D01*
X48285551Y-27715497D01*
X48285802Y-27716078D01*
X48286128Y-27716689D01*
X48286529Y-27717330D01*
X48286884Y-27718763D01*
X48286414Y-27720613D01*
X48285101Y-27722895D01*
X48282923Y-27725620D01*
X48279860Y-27728801D01*
X48275893Y-27732452D01*
X48265163Y-27741214D01*
X48250571Y-27752009D01*
X48231955Y-27764940D01*
X48209153Y-27780111D01*
X48182004Y-27797626D01*
X48150345Y-27817587D01*
X48114014Y-27840098D01*
X48026691Y-27893182D01*
X47918739Y-27957707D01*
X47788864Y-28034499D01*
X47741966Y-28061805D01*
X47704054Y-28083032D01*
X47688126Y-28091500D01*
X47674033Y-28098608D01*
X47661639Y-28104411D01*
X47650806Y-28108961D01*
X47641398Y-28112313D01*
X47633279Y-28114519D01*
X47626310Y-28115633D01*
X47620355Y-28115709D01*
X47615277Y-28114800D01*
X47610939Y-28112959D01*
X47607204Y-28110240D01*
X47603935Y-28106696D01*
X47601825Y-28104121D01*
X47599571Y-28101578D01*
X47597193Y-28099085D01*
X47594711Y-28096655D01*
X47592147Y-28094303D01*
X47589519Y-28092046D01*
X47586849Y-28089896D01*
X47584157Y-28087870D01*
X47581462Y-28085982D01*
X47578786Y-28084248D01*
X47576148Y-28082681D01*
X47573569Y-28081298D01*
X47571069Y-28080113D01*
X47568669Y-28079141D01*
X47566388Y-28078397D01*
X47564247Y-28077895D01*
X47547998Y-28070942D01*
X47517057Y-28054021D01*
X47419821Y-27995914D01*
X47289973Y-27914844D01*
X47144950Y-27822083D01*
X47002188Y-27728900D01*
X46879124Y-27646565D01*
X46793193Y-27586350D01*
X46769602Y-27568059D01*
X46761833Y-27559524D01*
X46762055Y-27558602D01*
X46762216Y-27557711D01*
X46762318Y-27556854D01*
X46762360Y-27556029D01*
X46762345Y-27555237D01*
X46762274Y-27554481D01*
X46762147Y-27553759D01*
X46761966Y-27553073D01*
X46761731Y-27552423D01*
X46761444Y-27551810D01*
X46761107Y-27551235D01*
X46760720Y-27550698D01*
X46760284Y-27550201D01*
X46759800Y-27549742D01*
X46759270Y-27549325D01*
X46758694Y-27548948D01*
X46758075Y-27548612D01*
X46757412Y-27548319D01*
X46756707Y-27548069D01*
X46755961Y-27547863D01*
X46755176Y-27547701D01*
X46754352Y-27547583D01*
X46753490Y-27547512D01*
X46752592Y-27547486D01*
X46751659Y-27547508D01*
X46750691Y-27547576D01*
X46749691Y-27547694D01*
X46748658Y-27547860D01*
X46747595Y-27548075D01*
X46746502Y-27548341D01*
X46745381Y-27548658D01*
X46744232Y-27549026D01*
X46742984Y-27549342D01*
X46741572Y-27549544D01*
X46740001Y-27549633D01*
X46738278Y-27549611D01*
X46734399Y-27549245D01*
X46729980Y-27548462D01*
X46725069Y-27547281D01*
X46719714Y-27545720D01*
X46713961Y-27543795D01*
X46707859Y-27541524D01*
X46701453Y-27538925D01*
X46694792Y-27536016D01*
X46687922Y-27532814D01*
X46680891Y-27529336D01*
X46673746Y-27525601D01*
X46666534Y-27521625D01*
X46659303Y-27517426D01*
X46652099Y-27513023D01*
X46582527Y-27469322D01*
X46493637Y-27518623D01*
X46391903Y-27577329D01*
X46231371Y-27672023D01*
X46058997Y-27774842D01*
X45921737Y-27857925D01*
X45878891Y-27884223D01*
X45923919Y-27921325D01*
X45935344Y-27930214D01*
X45950597Y-27941287D01*
X45969016Y-27954101D01*
X45989938Y-27968215D01*
X46012703Y-27983188D01*
X46036647Y-27998577D01*
X46061109Y-28013941D01*
X46085426Y-28028838D01*
X46147973Y-28067282D01*
X46232176Y-28119939D01*
X46327010Y-28179866D01*
X46421447Y-28240119D01*
X46616232Y-28364478D01*
X46776237Y-28465652D01*
X46803854Y-28483427D01*
X46828667Y-28500372D01*
X46850269Y-28516145D01*
X46859738Y-28523485D01*
X46868250Y-28530403D01*
X46875756Y-28536858D01*
X46882203Y-28542806D01*
X46887541Y-28548204D01*
X46891719Y-28553009D01*
X46894685Y-28557180D01*
X46896389Y-28560672D01*
X46896752Y-28562151D01*
X46896779Y-28563444D01*
X46896466Y-28564546D01*
X46895805Y-28565452D01*
X46861477Y-28588150D01*
X46781040Y-28638214D01*
X46543834Y-28782909D01*
X46308174Y-28924480D01*
X46229668Y-28970638D01*
X46198043Y-28987869D01*
X46196986Y-28987411D01*
X46194793Y-28986188D01*
X46187244Y-28981605D01*
X46175884Y-28974434D01*
X46161203Y-28964994D01*
X46123830Y-28940569D01*
X46079033Y-28910865D01*
X46079055Y-28911140D01*
X45915149Y-28805360D01*
X45622551Y-28619207D01*
X44975685Y-28211517D01*
X44573700Y-27958244D01*
X44177559Y-27709182D01*
X43976542Y-27583530D01*
X43789211Y-27464308D01*
X43647513Y-27372053D01*
X43603761Y-27342455D01*
X43583397Y-27327300D01*
X43581914Y-27325711D01*
X43580717Y-27324067D01*
X43579816Y-27322363D01*
X43579218Y-27320590D01*
X43578935Y-27318740D01*
X43578975Y-27316806D01*
X43579348Y-27314779D01*
X43580062Y-27312653D01*
X43581128Y-27310420D01*
X43582555Y-27308071D01*
X43584352Y-27305599D01*
X43586529Y-27302997D01*
X43589095Y-27300256D01*
X43592059Y-27297369D01*
X43595431Y-27294328D01*
X43599220Y-27291126D01*
X43603436Y-27287754D01*
X43608087Y-27284205D01*
X43613184Y-27280471D01*
X43618736Y-27276545D01*
X43624751Y-27272418D01*
X43631241Y-27268084D01*
X43645677Y-27258760D01*
X43662121Y-27248512D01*
X43680646Y-27237277D01*
X43701328Y-27224994D01*
X43724243Y-27211601D01*
X43792321Y-27171817D01*
X43857328Y-27133388D01*
X43911901Y-27100692D01*
X43948677Y-27078109D01*
X43983027Y-27056795D01*
X44031004Y-27027525D01*
X44086250Y-26994157D01*
X44142410Y-26960548D01*
X44274528Y-26881950D01*
X44573768Y-27073303D01*
X44816138Y-27226917D01*
X44914017Y-27288017D01*
X44978645Y-27327522D01*
X45000044Y-27340422D01*
X45020355Y-27352965D01*
X45039109Y-27364844D01*
X45055835Y-27375747D01*
X45070066Y-27385366D01*
X45081331Y-27393390D01*
X45089160Y-27399511D01*
X45091641Y-27401761D01*
X45093086Y-27403419D01*
X45094556Y-27405393D01*
X45096333Y-27407431D01*
X45100733Y-27411660D01*
X45106150Y-27416042D01*
X45112443Y-27420510D01*
X45119474Y-27424999D01*
X45127105Y-27429442D01*
X45135197Y-27433774D01*
X45143612Y-27437929D01*
X45152210Y-27441842D01*
X45160853Y-27445447D01*
X45169403Y-27448677D01*
X45177721Y-27451468D01*
X45185669Y-27453753D01*
X45193107Y-27455466D01*
X45199898Y-27456543D01*
X45203007Y-27456821D01*
X45205902Y-27456916D01*
X45209631Y-27456317D01*
X45215159Y-27454558D01*
X45222375Y-27451698D01*
X45231170Y-27447798D01*
X45241434Y-27442916D01*
X45253057Y-27437112D01*
X45279941Y-27422974D01*
X45310946Y-27405858D01*
X45345192Y-27386238D01*
X45381802Y-27364589D01*
X45419899Y-27341384D01*
X45596077Y-27233315D01*
X45757194Y-27135665D01*
X45812951Y-27102391D01*
X45834841Y-27088939D01*
X45852720Y-27077147D01*
X45860152Y-27071766D01*
X45866577Y-27066670D01*
X45871992Y-27061816D01*
X45876397Y-27057161D01*
X45879789Y-27052662D01*
X45882168Y-27048274D01*
X45883530Y-27043956D01*
X45883875Y-27039664D01*
X45883202Y-27035353D01*
X45881507Y-27030982D01*
X45878791Y-27026507D01*
X45875050Y-27021884D01*
X45870284Y-27017070D01*
X45864490Y-27012022D01*
X45857668Y-27006697D01*
X45849815Y-27001052D01*
X45831011Y-26988625D01*
X45808065Y-26974396D01*
X45749694Y-26939147D01*
X45707885Y-26913430D01*
X45656456Y-26881304D01*
X45601931Y-26846859D01*
X45550834Y-26814185D01*
X45405362Y-26721830D01*
X45216316Y-26603416D01*
X45058941Y-26504925D01*
X45009552Y-26473652D01*
X44989616Y-26460594D01*
X44989129Y-26459551D01*
X44989454Y-26458132D01*
X44990541Y-26456363D01*
X44992341Y-26454272D01*
X44997884Y-26449238D01*
X45005691Y-26443252D01*
X45015366Y-26436539D01*
X45026518Y-26429322D01*
X45038753Y-26421824D01*
X45051677Y-26414269D01*
X45064898Y-26406880D01*
X45078021Y-26399881D01*
X45090653Y-26393496D01*
X45102402Y-26387947D01*
X45112873Y-26383459D01*
X45121674Y-26380255D01*
X45128411Y-26378559D01*
X45130882Y-26378345D01*
X45132690Y-26378593D01*
X45133370Y-26378763D01*
X45134042Y-26378898D01*
X45134703Y-26378999D01*
X45135353Y-26379065D01*
X45135993Y-26379098D01*
X45136619Y-26379098D01*
X45137233Y-26379065D01*
X45137833Y-26378999D01*
X45138417Y-26378901D01*
X45138987Y-26378771D01*
X45139539Y-26378609D01*
X45140075Y-26378417D01*
X45140592Y-26378193D01*
X45141091Y-26377940D01*
X45141569Y-26377656D01*
X45142027Y-26377343D01*
X45142464Y-26377000D01*
X45142879Y-26376628D01*
X45143270Y-26376228D01*
X45143638Y-26375799D01*
X45143981Y-26375343D01*
X45144298Y-26374859D01*
X45144589Y-26374349D01*
X45144853Y-26373811D01*
X45145089Y-26373247D01*
X45145297Y-26372657D01*
X45145474Y-26372041D01*
X45145621Y-26371400D01*
X45145737Y-26370734D01*
X45145821Y-26370044D01*
X45145872Y-26369329D01*
X45145889Y-26368591D01*
X45145987Y-26367791D01*
X45146277Y-26366897D01*
X45146755Y-26365910D01*
X45147416Y-26364835D01*
X45148255Y-26363675D01*
X45149267Y-26362433D01*
X45150448Y-26361113D01*
X45151793Y-26359719D01*
X45154954Y-26356721D01*
X45158712Y-26353467D01*
X45163030Y-26349985D01*
X45167868Y-26346302D01*
X45173189Y-26342448D01*
X45178953Y-26338448D01*
X45185124Y-26334333D01*
X45191661Y-26330129D01*
X45198528Y-26325864D01*
X45205685Y-26321567D01*
X45213095Y-26317266D01*
X45220718Y-26312988D01*
X45265407Y-26287470D01*
X45331762Y-26248490D01*
X45410829Y-26201334D01*
X45493652Y-26151290D01*
X45571127Y-26104544D01*
X45635623Y-26066246D01*
X45680410Y-26040362D01*
X45693310Y-26033312D01*
X45698761Y-26030853D01*
X45700336Y-26031398D01*
D11*
X13891000Y-14097000D02*
X78291000Y-14097000D01*
X13891000Y-42497000D02*
X13891000Y-14097000D01*
X13891000Y-42497000D02*
X78291000Y-42497000D01*
X78291000Y-42497000D02*
X78291000Y-14097000D01*
D12*
D13*
G36*
X72624320Y-27967254D02*
G01*
X72654362Y-27967254D01*
X74547000Y-28667743D01*
X74547000Y-29245866D01*
X72654362Y-29967603D01*
X72624320Y-29967603D01*
X72624320Y-29360171D01*
X73645011Y-29034840D01*
X73681472Y-29023975D01*
X73716941Y-29013639D01*
X73751419Y-29003831D01*
X73784905Y-28994551D01*
X73817399Y-28985799D01*
X73848901Y-28977575D01*
X73879412Y-28969879D01*
X73908930Y-28962712D01*
X73946746Y-28953976D01*
X73982799Y-28946180D01*
X73951157Y-28938749D01*
X73918138Y-28931605D01*
X73887844Y-28925285D01*
X73858979Y-28919389D01*
X73846511Y-28916870D01*
X73814544Y-28910123D01*
X73782755Y-28903160D01*
X73751145Y-28895983D01*
X73719715Y-28888592D01*
X73688463Y-28880985D01*
X73657390Y-28873164D01*
X73645011Y-28869976D01*
X72624320Y-28600332D01*
X72624320Y-27967254D01*
G37*
G36*
X72624320Y-25968371D02*
G01*
X72654362Y-25968371D01*
X74547000Y-26668859D01*
X74547000Y-27246982D01*
X72654362Y-27968720D01*
X72624320Y-27968720D01*
X72624320Y-27361288D01*
X73645011Y-27035956D01*
X73681472Y-27025092D01*
X73716941Y-27014756D01*
X73751419Y-27004948D01*
X73784905Y-26995668D01*
X73817399Y-26986916D01*
X73848901Y-26978692D01*
X73879412Y-26970996D01*
X73908930Y-26963828D01*
X73946746Y-26955093D01*
X73982799Y-26947296D01*
X73951157Y-26939866D01*
X73918138Y-26932722D01*
X73887844Y-26926402D01*
X73858979Y-26920506D01*
X73846511Y-26917987D01*
X73814544Y-26911239D01*
X73782755Y-26904277D01*
X73751145Y-26897100D01*
X73719715Y-26889708D01*
X73688463Y-26882102D01*
X73657390Y-26874281D01*
X73645011Y-26871092D01*
X72624320Y-26601448D01*
X72624320Y-25968371D01*
G37*
D12*
D13*
X25376142Y-22914571D02*
X25376142Y-21414571D01*
X25376142Y-21414571D02*
X25876142Y-22486000D01*
X25876142Y-22486000D02*
X26376142Y-21414571D01*
X26376142Y-21414571D02*
X26376142Y-22914571D01*
X27733286Y-22914571D02*
X27733286Y-22128857D01*
X27733286Y-22128857D02*
X27661857Y-21986000D01*
X27661857Y-21986000D02*
X27519000Y-21914571D01*
X27519000Y-21914571D02*
X27233286Y-21914571D01*
X27233286Y-21914571D02*
X27090428Y-21986000D01*
X27733286Y-22843142D02*
X27590428Y-22914571D01*
X27590428Y-22914571D02*
X27233286Y-22914571D01*
X27233286Y-22914571D02*
X27090428Y-22843142D01*
X27090428Y-22843142D02*
X27019000Y-22700285D01*
X27019000Y-22700285D02*
X27019000Y-22557428D01*
X27019000Y-22557428D02*
X27090428Y-22414571D01*
X27090428Y-22414571D02*
X27233286Y-22343142D01*
X27233286Y-22343142D02*
X27590428Y-22343142D01*
X27590428Y-22343142D02*
X27733286Y-22271714D01*
X28447571Y-22914571D02*
X28447571Y-21914571D01*
X28447571Y-22200285D02*
X28519000Y-22057428D01*
X28519000Y-22057428D02*
X28590429Y-21986000D01*
X28590429Y-21986000D02*
X28733286Y-21914571D01*
X28733286Y-21914571D02*
X28876143Y-21914571D01*
X29947571Y-22843142D02*
X29804714Y-22914571D01*
X29804714Y-22914571D02*
X29519000Y-22914571D01*
X29519000Y-22914571D02*
X29376142Y-22843142D01*
X29376142Y-22843142D02*
X29304714Y-22700285D01*
X29304714Y-22700285D02*
X29304714Y-22128857D01*
X29304714Y-22128857D02*
X29376142Y-21986000D01*
X29376142Y-21986000D02*
X29519000Y-21914571D01*
X29519000Y-21914571D02*
X29804714Y-21914571D01*
X29804714Y-21914571D02*
X29947571Y-21986000D01*
X29947571Y-21986000D02*
X30019000Y-22128857D01*
X30019000Y-22128857D02*
X30019000Y-22271714D01*
X30019000Y-22271714D02*
X29304714Y-22414571D01*
X30661856Y-22914571D02*
X30661856Y-21414571D01*
X30804714Y-22343142D02*
X31233285Y-22914571D01*
X31233285Y-21914571D02*
X30661856Y-22486000D01*
X32633285Y-21414571D02*
X32990428Y-22914571D01*
X32990428Y-22914571D02*
X33276142Y-21843142D01*
X33276142Y-21843142D02*
X33561857Y-22914571D01*
X33561857Y-22914571D02*
X33919000Y-21414571D01*
X35061857Y-22843142D02*
X34919000Y-22914571D01*
X34919000Y-22914571D02*
X34633286Y-22914571D01*
X34633286Y-22914571D02*
X34490428Y-22843142D01*
X34490428Y-22843142D02*
X34419000Y-22700285D01*
X34419000Y-22700285D02*
X34419000Y-22128857D01*
X34419000Y-22128857D02*
X34490428Y-21986000D01*
X34490428Y-21986000D02*
X34633286Y-21914571D01*
X34633286Y-21914571D02*
X34919000Y-21914571D01*
X34919000Y-21914571D02*
X35061857Y-21986000D01*
X35061857Y-21986000D02*
X35133286Y-22128857D01*
X35133286Y-22128857D02*
X35133286Y-22271714D01*
X35133286Y-22271714D02*
X34419000Y-22414571D01*
X35776142Y-22914571D02*
X35776142Y-21414571D01*
X36419000Y-22914571D02*
X36419000Y-22128857D01*
X36419000Y-22128857D02*
X36347571Y-21986000D01*
X36347571Y-21986000D02*
X36204714Y-21914571D01*
X36204714Y-21914571D02*
X35990428Y-21914571D01*
X35990428Y-21914571D02*
X35847571Y-21986000D01*
X35847571Y-21986000D02*
X35776142Y-22057428D01*
X37133285Y-21914571D02*
X37133285Y-22914571D01*
X37133285Y-22057428D02*
X37204714Y-21986000D01*
X37204714Y-21986000D02*
X37347571Y-21914571D01*
X37347571Y-21914571D02*
X37561857Y-21914571D01*
X37561857Y-21914571D02*
X37704714Y-21986000D01*
X37704714Y-21986000D02*
X37776143Y-22128857D01*
X37776143Y-22128857D02*
X37776143Y-22914571D01*
X38490428Y-22914571D02*
X38490428Y-21914571D01*
X38490428Y-21414571D02*
X38419000Y-21486000D01*
X38419000Y-21486000D02*
X38490428Y-21557428D01*
X38490428Y-21557428D02*
X38561857Y-21486000D01*
X38561857Y-21486000D02*
X38490428Y-21414571D01*
X38490428Y-21414571D02*
X38490428Y-21557428D01*
X39204714Y-21914571D02*
X39204714Y-22914571D01*
X39204714Y-22057428D02*
X39276143Y-21986000D01*
X39276143Y-21986000D02*
X39419000Y-21914571D01*
X39419000Y-21914571D02*
X39633286Y-21914571D01*
X39633286Y-21914571D02*
X39776143Y-21986000D01*
X39776143Y-21986000D02*
X39847572Y-22128857D01*
X39847572Y-22128857D02*
X39847572Y-22914571D01*
X41204715Y-21914571D02*
X41204715Y-23128857D01*
X41204715Y-23128857D02*
X41133286Y-23271714D01*
X41133286Y-23271714D02*
X41061857Y-23343142D01*
X41061857Y-23343142D02*
X40919000Y-23414571D01*
X40919000Y-23414571D02*
X40704715Y-23414571D01*
X40704715Y-23414571D02*
X40561857Y-23343142D01*
X41204715Y-22843142D02*
X41061857Y-22914571D01*
X41061857Y-22914571D02*
X40776143Y-22914571D01*
X40776143Y-22914571D02*
X40633286Y-22843142D01*
X40633286Y-22843142D02*
X40561857Y-22771714D01*
X40561857Y-22771714D02*
X40490429Y-22628857D01*
X40490429Y-22628857D02*
X40490429Y-22200285D01*
X40490429Y-22200285D02*
X40561857Y-22057428D01*
X40561857Y-22057428D02*
X40633286Y-21986000D01*
X40633286Y-21986000D02*
X40776143Y-21914571D01*
X40776143Y-21914571D02*
X41061857Y-21914571D01*
X41061857Y-21914571D02*
X41204715Y-21986000D01*
X42747572Y-21557428D02*
X42819000Y-21486000D01*
X42819000Y-21486000D02*
X42961858Y-21414571D01*
X42961858Y-21414571D02*
X43319000Y-21414571D01*
X43319000Y-21414571D02*
X43461858Y-21486000D01*
X43461858Y-21486000D02*
X43533286Y-21557428D01*
X43533286Y-21557428D02*
X43604715Y-21700285D01*
X43604715Y-21700285D02*
X43604715Y-21843142D01*
X43604715Y-21843142D02*
X43533286Y-22057428D01*
X43533286Y-22057428D02*
X42676143Y-22914571D01*
X42676143Y-22914571D02*
X43604715Y-22914571D01*
X44533286Y-21414571D02*
X44676143Y-21414571D01*
X44676143Y-21414571D02*
X44819000Y-21486000D01*
X44819000Y-21486000D02*
X44890429Y-21557428D01*
X44890429Y-21557428D02*
X44961857Y-21700285D01*
X44961857Y-21700285D02*
X45033286Y-21986000D01*
X45033286Y-21986000D02*
X45033286Y-22343142D01*
X45033286Y-22343142D02*
X44961857Y-22628857D01*
X44961857Y-22628857D02*
X44890429Y-22771714D01*
X44890429Y-22771714D02*
X44819000Y-22843142D01*
X44819000Y-22843142D02*
X44676143Y-22914571D01*
X44676143Y-22914571D02*
X44533286Y-22914571D01*
X44533286Y-22914571D02*
X44390429Y-22843142D01*
X44390429Y-22843142D02*
X44319000Y-22771714D01*
X44319000Y-22771714D02*
X44247571Y-22628857D01*
X44247571Y-22628857D02*
X44176143Y-22343142D01*
X44176143Y-22343142D02*
X44176143Y-21986000D01*
X44176143Y-21986000D02*
X44247571Y-21700285D01*
X44247571Y-21700285D02*
X44319000Y-21557428D01*
X44319000Y-21557428D02*
X44390429Y-21486000D01*
X44390429Y-21486000D02*
X44533286Y-21414571D01*
X45604714Y-21557428D02*
X45676142Y-21486000D01*
X45676142Y-21486000D02*
X45819000Y-21414571D01*
X45819000Y-21414571D02*
X46176142Y-21414571D01*
X46176142Y-21414571D02*
X46319000Y-21486000D01*
X46319000Y-21486000D02*
X46390428Y-21557428D01*
X46390428Y-21557428D02*
X46461857Y-21700285D01*
X46461857Y-21700285D02*
X46461857Y-21843142D01*
X46461857Y-21843142D02*
X46390428Y-22057428D01*
X46390428Y-22057428D02*
X45533285Y-22914571D01*
X45533285Y-22914571D02*
X46461857Y-22914571D01*
X46961856Y-21414571D02*
X47890428Y-21414571D01*
X47890428Y-21414571D02*
X47390428Y-21986000D01*
X47390428Y-21986000D02*
X47604713Y-21986000D01*
X47604713Y-21986000D02*
X47747571Y-22057428D01*
X47747571Y-22057428D02*
X47818999Y-22128857D01*
X47818999Y-22128857D02*
X47890428Y-22271714D01*
X47890428Y-22271714D02*
X47890428Y-22628857D01*
X47890428Y-22628857D02*
X47818999Y-22771714D01*
X47818999Y-22771714D02*
X47747571Y-22843142D01*
X47747571Y-22843142D02*
X47604713Y-22914571D01*
X47604713Y-22914571D02*
X47176142Y-22914571D01*
X47176142Y-22914571D02*
X47033285Y-22843142D01*
X47033285Y-22843142D02*
X46961856Y-22771714D01*
D12*
D13*
X25415857Y-19509571D02*
X25915857Y-21009571D01*
X25915857Y-21009571D02*
X26415857Y-19509571D01*
X27772999Y-21009571D02*
X27272999Y-20295285D01*
X26915856Y-21009571D02*
X26915856Y-19509571D01*
X26915856Y-19509571D02*
X27487285Y-19509571D01*
X27487285Y-19509571D02*
X27630142Y-19581000D01*
X27630142Y-19581000D02*
X27701571Y-19652428D01*
X27701571Y-19652428D02*
X27772999Y-19795285D01*
X27772999Y-19795285D02*
X27772999Y-20009571D01*
X27772999Y-20009571D02*
X27701571Y-20152428D01*
X27701571Y-20152428D02*
X27630142Y-20223857D01*
X27630142Y-20223857D02*
X27487285Y-20295285D01*
X27487285Y-20295285D02*
X26915856Y-20295285D01*
X28415856Y-20438142D02*
X29558714Y-20438142D01*
X30201571Y-20938142D02*
X30415857Y-21009571D01*
X30415857Y-21009571D02*
X30772999Y-21009571D01*
X30772999Y-21009571D02*
X30915857Y-20938142D01*
X30915857Y-20938142D02*
X30987285Y-20866714D01*
X30987285Y-20866714D02*
X31058714Y-20723857D01*
X31058714Y-20723857D02*
X31058714Y-20581000D01*
X31058714Y-20581000D02*
X30987285Y-20438142D01*
X30987285Y-20438142D02*
X30915857Y-20366714D01*
X30915857Y-20366714D02*
X30772999Y-20295285D01*
X30772999Y-20295285D02*
X30487285Y-20223857D01*
X30487285Y-20223857D02*
X30344428Y-20152428D01*
X30344428Y-20152428D02*
X30272999Y-20081000D01*
X30272999Y-20081000D02*
X30201571Y-19938142D01*
X30201571Y-19938142D02*
X30201571Y-19795285D01*
X30201571Y-19795285D02*
X30272999Y-19652428D01*
X30272999Y-19652428D02*
X30344428Y-19581000D01*
X30344428Y-19581000D02*
X30487285Y-19509571D01*
X30487285Y-19509571D02*
X30844428Y-19509571D01*
X30844428Y-19509571D02*
X31058714Y-19581000D01*
X31701570Y-21009571D02*
X31701570Y-19509571D01*
X32344428Y-21009571D02*
X32344428Y-20223857D01*
X32344428Y-20223857D02*
X32272999Y-20081000D01*
X32272999Y-20081000D02*
X32130142Y-20009571D01*
X32130142Y-20009571D02*
X31915856Y-20009571D01*
X31915856Y-20009571D02*
X31772999Y-20081000D01*
X31772999Y-20081000D02*
X31701570Y-20152428D01*
X33058713Y-21009571D02*
X33058713Y-20009571D01*
X33058713Y-19509571D02*
X32987285Y-19581000D01*
X32987285Y-19581000D02*
X33058713Y-19652428D01*
X33058713Y-19652428D02*
X33130142Y-19581000D01*
X33130142Y-19581000D02*
X33058713Y-19509571D01*
X33058713Y-19509571D02*
X33058713Y-19652428D01*
X34344428Y-20938142D02*
X34201571Y-21009571D01*
X34201571Y-21009571D02*
X33915857Y-21009571D01*
X33915857Y-21009571D02*
X33772999Y-20938142D01*
X33772999Y-20938142D02*
X33701571Y-20795285D01*
X33701571Y-20795285D02*
X33701571Y-20223857D01*
X33701571Y-20223857D02*
X33772999Y-20081000D01*
X33772999Y-20081000D02*
X33915857Y-20009571D01*
X33915857Y-20009571D02*
X34201571Y-20009571D01*
X34201571Y-20009571D02*
X34344428Y-20081000D01*
X34344428Y-20081000D02*
X34415857Y-20223857D01*
X34415857Y-20223857D02*
X34415857Y-20366714D01*
X34415857Y-20366714D02*
X33701571Y-20509571D01*
X35272999Y-21009571D02*
X35130142Y-20938142D01*
X35130142Y-20938142D02*
X35058713Y-20795285D01*
X35058713Y-20795285D02*
X35058713Y-19509571D01*
X36487285Y-21009571D02*
X36487285Y-19509571D01*
X36487285Y-20938142D02*
X36344427Y-21009571D01*
X36344427Y-21009571D02*
X36058713Y-21009571D01*
X36058713Y-21009571D02*
X35915856Y-20938142D01*
X35915856Y-20938142D02*
X35844427Y-20866714D01*
X35844427Y-20866714D02*
X35772999Y-20723857D01*
X35772999Y-20723857D02*
X35772999Y-20295285D01*
X35772999Y-20295285D02*
X35844427Y-20152428D01*
X35844427Y-20152428D02*
X35915856Y-20081000D01*
X35915856Y-20081000D02*
X36058713Y-20009571D01*
X36058713Y-20009571D02*
X36344427Y-20009571D01*
X36344427Y-20009571D02*
X36487285Y-20081000D01*
X37958713Y-20009571D02*
X38315856Y-21009571D01*
X38315856Y-21009571D02*
X38672999Y-20009571D01*
X39530142Y-19509571D02*
X39672999Y-19509571D01*
X39672999Y-19509571D02*
X39815856Y-19581000D01*
X39815856Y-19581000D02*
X39887285Y-19652428D01*
X39887285Y-19652428D02*
X39958713Y-19795285D01*
X39958713Y-19795285D02*
X40030142Y-20081000D01*
X40030142Y-20081000D02*
X40030142Y-20438142D01*
X40030142Y-20438142D02*
X39958713Y-20723857D01*
X39958713Y-20723857D02*
X39887285Y-20866714D01*
X39887285Y-20866714D02*
X39815856Y-20938142D01*
X39815856Y-20938142D02*
X39672999Y-21009571D01*
X39672999Y-21009571D02*
X39530142Y-21009571D01*
X39530142Y-21009571D02*
X39387285Y-20938142D01*
X39387285Y-20938142D02*
X39315856Y-20866714D01*
X39315856Y-20866714D02*
X39244427Y-20723857D01*
X39244427Y-20723857D02*
X39172999Y-20438142D01*
X39172999Y-20438142D02*
X39172999Y-20081000D01*
X39172999Y-20081000D02*
X39244427Y-19795285D01*
X39244427Y-19795285D02*
X39315856Y-19652428D01*
X39315856Y-19652428D02*
X39387285Y-19581000D01*
X39387285Y-19581000D02*
X39530142Y-19509571D01*
X40601570Y-19652428D02*
X40672998Y-19581000D01*
X40672998Y-19581000D02*
X40815856Y-19509571D01*
X40815856Y-19509571D02*
X41172998Y-19509571D01*
X41172998Y-19509571D02*
X41315856Y-19581000D01*
X41315856Y-19581000D02*
X41387284Y-19652428D01*
X41387284Y-19652428D02*
X41458713Y-19795285D01*
X41458713Y-19795285D02*
X41458713Y-19938142D01*
X41458713Y-19938142D02*
X41387284Y-20152428D01*
X41387284Y-20152428D02*
X40530141Y-21009571D01*
X40530141Y-21009571D02*
X41458713Y-21009571D01*
D14*
G04 #@! TO.P,Q2,1,B*
G04 #@! TO.N,Net-(Q2-B)*
X55831500Y-34864000D03*
G04 #@! TO.P,Q2,2,E*
G04 #@! TO.N,GND*
X55831500Y-36764000D03*
G04 #@! TO.P,Q2,3,C*
G04 #@! TO.N,Net-(Q1-G)*
X57706500Y-35814000D03*
G04 #@! TD*
D15*
G04 #@! TO.P,FID\u002A\u002A,*
G04 #@! TO.N,*
X76454000Y-40767000D03*
G04 #@! TD*
D16*
G04 #@! TO.P,U1,1,3V3*
G04 #@! TO.N,unconnected-(U1-3V3-Pad1)*
X23240999Y-41020999D03*
D17*
G04 #@! TO.P,U1,2,CHIP_PU*
G04 #@! TO.N,Net-(U1-CHIP_PU)*
X25780999Y-41020999D03*
G04 #@! TO.P,U1,3,SENSOR_VP/GPIO36/ADC1_CH0*
G04 #@! TO.N,unconnected-(U1-SENSOR_VP{slash}GPIO36{slash}ADC1_CH0-Pad3)*
X28320999Y-41020999D03*
G04 #@! TO.P,U1,4,SENSOR_VN/GPIO39/ADC1_CH3*
G04 #@! TO.N,unconnected-(U1-SENSOR_VN{slash}GPIO39{slash}ADC1_CH3-Pad4)*
X30860999Y-41020999D03*
G04 #@! TO.P,U1,5,VDET_1/GPIO34/ADC1_CH6*
G04 #@! TO.N,unconnected-(U1-VDET_1{slash}GPIO34{slash}ADC1_CH6-Pad5)*
X33400999Y-41020999D03*
G04 #@! TO.P,U1,6,VDET_2/GPIO35/ADC1_CH7*
G04 #@! TO.N,unconnected-(U1-VDET_2{slash}GPIO35{slash}ADC1_CH7-Pad6)*
X35940999Y-41020999D03*
G04 #@! TO.P,U1,7,32K_XP/GPIO32/ADC1_CH4*
G04 #@! TO.N,/LED*
X38480999Y-41020999D03*
G04 #@! TO.P,U1,8,32K_XN/GPIO33/ADC1_CH5*
G04 #@! TO.N,unconnected-(U1-32K_XN{slash}GPIO33{slash}ADC1_CH5-Pad8)*
X41020999Y-41020999D03*
G04 #@! TO.P,U1,9,DAC_1/ADC2_CH8/GPIO25*
G04 #@! TO.N,unconnected-(U1-DAC_1{slash}ADC2_CH8{slash}GPIO25-Pad9)*
X43560999Y-41020999D03*
G04 #@! TO.P,U1,10,DAC_2/ADC2_CH9/GPIO26*
G04 #@! TO.N,unconnected-(U1-DAC_2{slash}ADC2_CH9{slash}GPIO26-Pad10)*
X46100999Y-41020999D03*
G04 #@! TO.P,U1,11,ADC2_CH7/GPIO27*
G04 #@! TO.N,unconnected-(U1-ADC2_CH7{slash}GPIO27-Pad11)*
X48640999Y-41020999D03*
G04 #@! TO.P,U1,12,MTMS/GPIO14/ADC2_CH6*
G04 #@! TO.N,unconnected-(U1-MTMS{slash}GPIO14{slash}ADC2_CH6-Pad12)*
X51180999Y-41020999D03*
G04 #@! TO.P,U1,13,\u002AMTDI/GPIO12/ADC2_CH5*
G04 #@! TO.N,unconnected-(U1-\u002AMTDI{slash}GPIO12{slash}ADC2_CH5-Pad13)*
X53720999Y-41020999D03*
G04 #@! TO.P,U1,14,GND*
G04 #@! TO.N,GND*
X56260999Y-41020999D03*
G04 #@! TO.P,U1,15,MTCK/GPIO13/ADC2_CH4*
G04 #@! TO.N,unconnected-(U1-MTCK{slash}GPIO13{slash}ADC2_CH4-Pad15)*
X58800999Y-41020999D03*
G04 #@! TO.P,U1,16,SD_DATA2/GPIO9*
G04 #@! TO.N,unconnected-(U1-SD_DATA2{slash}GPIO9-Pad16)*
X61340999Y-41020999D03*
G04 #@! TO.P,U1,17,SD_DATA3/GPIO10*
G04 #@! TO.N,unconnected-(U1-SD_DATA3{slash}GPIO10-Pad17)*
X63880999Y-41020999D03*
G04 #@! TO.P,U1,18,CMD*
G04 #@! TO.N,unconnected-(U1-CMD-Pad18)*
X66420999Y-41020999D03*
G04 #@! TO.P,U1,19,5V*
G04 #@! TO.N,/5V*
X68960999Y-41020999D03*
G04 #@! TO.P,U1,20,SD_CLK/GPIO6*
G04 #@! TO.N,unconnected-(U1-SD_CLK{slash}GPIO6-Pad20)*
X68958279Y-15624679D03*
G04 #@! TO.P,U1,21,SD_DATA0/GPIO7*
G04 #@! TO.N,unconnected-(U1-SD_DATA0{slash}GPIO7-Pad21)*
X66418279Y-15624679D03*
G04 #@! TO.P,U1,22,SD_DATA1/GPIO8*
G04 #@! TO.N,unconnected-(U1-SD_DATA1{slash}GPIO8-Pad22)*
X63880999Y-15620999D03*
G04 #@! TO.P,U1,23,\u002AMTDO/GPIO15/ADC2_CH3*
G04 #@! TO.N,unconnected-(U1-\u002AMTDO{slash}GPIO15{slash}ADC2_CH3-Pad23)*
X61340999Y-15620999D03*
G04 #@! TO.P,U1,24,ADC2_CH2/\u002AGPIO2*
G04 #@! TO.N,unconnected-(U1-ADC2_CH2{slash}\u002AGPIO2-Pad24)*
X58800999Y-15620999D03*
G04 #@! TO.P,U1,25,\u002AGPIO0/BOOT/ADC2_CH1*
G04 #@! TO.N,unconnected-(U1-\u002AGPIO0{slash}BOOT{slash}ADC2_CH1-Pad25)*
X56260999Y-15620999D03*
G04 #@! TO.P,U1,26,ADC2_CH0/GPIO4*
G04 #@! TO.N,unconnected-(U1-ADC2_CH0{slash}GPIO4-Pad26)*
X53720999Y-15620999D03*
G04 #@! TO.P,U1,27,GPIO16*
G04 #@! TO.N,unconnected-(U1-GPIO16-Pad27)*
X51180999Y-15620999D03*
G04 #@! TO.P,U1,28,GPIO17*
G04 #@! TO.N,unconnected-(U1-GPIO17-Pad28)*
X48640999Y-15620999D03*
G04 #@! TO.P,U1,29,\u002AGPIO5*
G04 #@! TO.N,unconnected-(U1-\u002AGPIO5-Pad29)*
X46100999Y-15620999D03*
G04 #@! TO.P,U1,30,GPIO18*
G04 #@! TO.N,unconnected-(U1-GPIO18-Pad30)*
X43560999Y-15620999D03*
G04 #@! TO.P,U1,31,GPIO19*
G04 #@! TO.N,Net-(U1-GPIO19)*
X41020999Y-15620999D03*
G04 #@! TO.P,U1,32,GND*
G04 #@! TO.N,unconnected-(U1-GND-Pad32)*
X38480999Y-15620999D03*
G04 #@! TO.P,U1,33,GPIO21*
G04 #@! TO.N,Net-(P1-SDA)*
X35940999Y-15620999D03*
G04 #@! TO.P,U1,34,U0RXD/GPIO3*
G04 #@! TO.N,unconnected-(U1-U0RXD{slash}GPIO3-Pad34)*
X33400999Y-15620999D03*
G04 #@! TO.P,U1,35,U0TXD/GPIO1*
G04 #@! TO.N,unconnected-(U1-U0TXD{slash}GPIO1-Pad35)*
X30860999Y-15620999D03*
G04 #@! TO.P,U1,36,GPIO22*
G04 #@! TO.N,Net-(P1-SCL)*
X28320999Y-15620999D03*
G04 #@! TO.P,U1,37,GPIO23*
G04 #@! TO.N,unconnected-(U1-GPIO23-Pad37)*
X25780999Y-15620999D03*
G04 #@! TO.P,U1,38,GND*
G04 #@! TO.N,GND*
X23240999Y-15620999D03*
G04 #@! TD*
D18*
G04 #@! TO.P,R2,1*
G04 #@! TO.N,Net-(U1-GPIO19)*
X52959000Y-32528000D03*
G04 #@! TO.P,R2,2*
G04 #@! TO.N,Net-(Q2-B)*
X52959000Y-34528000D03*
G04 #@! TD*
D15*
G04 #@! TO.P,FID\u002A\u002A,*
G04 #@! TO.N,*
X15240000Y-41148000D03*
G04 #@! TD*
D19*
G04 #@! TO.P,R1,1*
G04 #@! TO.N,/LED*
X44568000Y-36068000D03*
G04 #@! TO.P,R1,2*
G04 #@! TO.N,Net-(D1-A)*
X42568000Y-36068000D03*
G04 #@! TD*
D15*
G04 #@! TO.P,FID\u002A\u002A,*
G04 #@! TO.N,*
X15621000Y-15621000D03*
G04 #@! TD*
D19*
G04 #@! TO.P,R3,1*
G04 #@! TO.N,Net-(Q1-G)*
X57769000Y-32893000D03*
G04 #@! TO.P,R3,2*
G04 #@! TO.N,/5V*
X55769000Y-32893000D03*
G04 #@! TD*
D20*
G04 #@! TO.P,D1,1,K*
G04 #@! TO.N,GND*
X44586000Y-32766000D03*
G04 #@! TO.P,D1,2,A*
G04 #@! TO.N,Net-(D1-A)*
X42536000Y-32766000D03*
G04 #@! TD*
D21*
G04 #@! TO.P,Q1,1,S*
G04 #@! TO.N,/5V*
X54102000Y-30288000D03*
G04 #@! TO.P,Q1,2,S*
X55372000Y-30288000D03*
G04 #@! TO.P,Q1,3,S*
X56642000Y-30288000D03*
G04 #@! TO.P,Q1,4,G*
G04 #@! TO.N,Net-(Q1-G)*
X57912000Y-30288000D03*
G04 #@! TO.P,Q1,5,D*
G04 #@! TO.N,Net-(P1-VCC)*
X57912000Y-25338000D03*
G04 #@! TO.P,Q1,6,D*
X56642000Y-25338000D03*
G04 #@! TO.P,Q1,7,D*
X55372000Y-25338000D03*
G04 #@! TO.P,Q1,8,D*
X54102000Y-25338000D03*
G04 #@! TD*
D22*
G04 #@! TO.P,P4,1,GND*
G04 #@! TO.N,GND*
X75818999Y-34670999D03*
D23*
G04 #@! TO.P,P4,2,SCL*
G04 #@! TO.N,Net-(P1-SCL)*
X73279000Y-35941000D03*
G04 #@! TO.P,P4,3,SDA*
G04 #@! TO.N,Net-(P1-SDA)*
X75819000Y-37211000D03*
G04 #@! TO.P,P4,4,VCC*
G04 #@! TO.N,Net-(P1-VCC)*
X73279000Y-38481000D03*
G04 #@! TD*
D22*
G04 #@! TO.P,P3,1,GND*
G04 #@! TO.N,GND*
X16509999Y-38480999D03*
D23*
G04 #@! TO.P,P3,2,SCL*
G04 #@! TO.N,Net-(P1-SCL)*
X19050000Y-37211000D03*
G04 #@! TO.P,P3,3,SDA*
G04 #@! TO.N,Net-(P1-SDA)*
X16510000Y-35941000D03*
G04 #@! TO.P,P3,4,VCC*
G04 #@! TO.N,Net-(P1-VCC)*
X19050000Y-34671000D03*
G04 #@! TD*
D22*
G04 #@! TO.P,P2,1,GND*
G04 #@! TO.N,GND*
X16509999Y-21843999D03*
D23*
G04 #@! TO.P,P2,2,SCL*
G04 #@! TO.N,Net-(P1-SCL)*
X19050000Y-20574000D03*
G04 #@! TO.P,P2,3,SDA*
G04 #@! TO.N,Net-(P1-SDA)*
X16510000Y-19304000D03*
G04 #@! TO.P,P2,4,VCC*
G04 #@! TO.N,Net-(P1-VCC)*
X19050000Y-18034000D03*
G04 #@! TD*
D24*
G04 #@! TO.P,CB1,1*
G04 #@! TO.N,Net-(U1-CHIP_PU)*
X40005000Y-26162000D03*
X32385000Y-26162000D03*
G04 #@! TO.P,CB1,2*
G04 #@! TO.N,GND*
X40005000Y-31242000D03*
X32385000Y-31242000D03*
G04 #@! TD*
D22*
G04 #@! TO.P,P1,1,GND*
G04 #@! TO.N,GND*
X75945999Y-18033999D03*
D23*
G04 #@! TO.P,P1,2,SCL*
G04 #@! TO.N,Net-(P1-SCL)*
X73406000Y-19304000D03*
G04 #@! TO.P,P1,3,SDA*
G04 #@! TO.N,Net-(P1-SDA)*
X75946000Y-20574000D03*
G04 #@! TO.P,P1,4,VCC*
G04 #@! TO.N,Net-(P1-VCC)*
X73406000Y-21844000D03*
G04 #@! TD*
D25*
G04 #@! TO.N,GND*
X59309000Y-21292500D03*
X60198000Y-31242000D03*
G04 #@! TO.N,Net-(P1-SCL)*
X66675000Y-19213752D03*
X28321000Y-17653000D03*
X21971000Y-21336000D03*
G04 #@! TO.N,Net-(P1-SDA)*
X21844000Y-19177000D03*
X21844000Y-35941000D03*
X35687000Y-18542000D03*
X70858442Y-18921382D03*
G04 #@! TO.N,Net-(P1-VCC)*
X22479000Y-25019000D03*
X55245000Y-21971000D03*
G04 #@! TO.N,/5V*
X60198000Y-28956000D03*
G04 #@! TD*
D26*
G04 #@! TO.N,Net-(U1-CHIP_PU)*
X32385000Y-26162000D02*
X32385000Y-26098500D01*
X26469000Y-39571000D02*
X25781000Y-40259000D01*
X25781000Y-40259000D02*
X25781000Y-41021000D01*
X32385000Y-26098500D02*
X33845500Y-24638000D01*
X33845500Y-24638000D02*
X38481000Y-24638000D01*
X30734000Y-27813000D02*
X30734000Y-37973000D01*
X38481000Y-24638000D02*
X40005000Y-26162000D01*
X29136000Y-39571000D02*
X26469000Y-39571000D01*
X30734000Y-37973000D02*
X29136000Y-39571000D01*
X32385000Y-26162000D02*
X30734000Y-27813000D01*
D27*
G04 #@! TO.N,GND*
X75946000Y-16312680D02*
X75946000Y-18034000D01*
X56134000Y-38735000D02*
X56134000Y-40894000D01*
X15113000Y-23241000D02*
X15113000Y-37084000D01*
X60198000Y-31242000D02*
X60198000Y-36703000D01*
X75819000Y-34671000D02*
X75819000Y-35301811D01*
X40005000Y-31242000D02*
X43726752Y-31242000D01*
X15113000Y-37084000D02*
X16510000Y-38481000D01*
X74767320Y-15134000D02*
X75946000Y-16312680D01*
X34163000Y-33020000D02*
X38227000Y-33020000D01*
X56134000Y-38735000D02*
X56134000Y-37066500D01*
X62737748Y-17863752D02*
X70020248Y-17863752D01*
X43726752Y-31242000D02*
X44586000Y-32101248D01*
X77296000Y-33194000D02*
X77296000Y-19384000D01*
X58166000Y-38735000D02*
X56134000Y-38735000D01*
X44586000Y-32766000D02*
X44586000Y-33906000D01*
X70020248Y-17863752D02*
X72750000Y-15134000D01*
X44586000Y-33906000D02*
X48257000Y-33906000D01*
X60198000Y-36703000D02*
X58166000Y-38735000D01*
X38227000Y-33020000D02*
X40005000Y-31242000D01*
X56134000Y-37066500D02*
X55831500Y-36764000D01*
X77296000Y-19384000D02*
X75946000Y-18034000D01*
X75819000Y-34671000D02*
X77296000Y-33194000D01*
X72750000Y-15134000D02*
X74767320Y-15134000D01*
X32385000Y-31242000D02*
X34163000Y-33020000D01*
X18283811Y-15621000D02*
X14859000Y-19045811D01*
X53086000Y-38735000D02*
X56134000Y-38735000D01*
X14859000Y-20193000D02*
X16510000Y-21844000D01*
X14859000Y-19045811D02*
X14859000Y-20193000D01*
X23241000Y-15621000D02*
X18283811Y-15621000D01*
X48257000Y-33906000D02*
X53086000Y-38735000D01*
X16510000Y-21844000D02*
X15113000Y-23241000D01*
X44586000Y-32101248D02*
X44586000Y-32766000D01*
X59309000Y-21292500D02*
X62737748Y-17863752D01*
X56134000Y-40894000D02*
X56261000Y-41021000D01*
D26*
G04 #@! TO.N,Net-(D1-A)*
X42568000Y-36068000D02*
X42568000Y-32798000D01*
X42568000Y-32798000D02*
X42536000Y-32766000D01*
G04 #@! TO.N,Net-(P1-SCL)*
X73279000Y-35941000D02*
X72359762Y-35941000D01*
X23941000Y-18731000D02*
X23941000Y-22514949D01*
X24638000Y-18034000D02*
X23941000Y-18731000D01*
X74676000Y-30861000D02*
X75311000Y-30226000D01*
X23749000Y-22706949D02*
X23749000Y-35633503D01*
X71628000Y-35209238D02*
X71628000Y-31877000D01*
X68543248Y-21082000D02*
X71628000Y-21082000D01*
X21971000Y-21336000D02*
X21209000Y-20574000D01*
X72359762Y-35941000D02*
X71628000Y-35209238D01*
X75311000Y-24511000D02*
X74549000Y-23749000D01*
X23941000Y-22514949D02*
X23749000Y-22706949D01*
X66675000Y-19213752D02*
X68543248Y-21082000D01*
X71628000Y-31877000D02*
X72644000Y-30861000D01*
X27940000Y-18034000D02*
X24638000Y-18034000D01*
X21209000Y-20574000D02*
X19050000Y-20574000D01*
X23749000Y-35633503D02*
X22171503Y-37211000D01*
X22171503Y-37211000D02*
X19050000Y-37211000D01*
X72644000Y-30861000D02*
X74676000Y-30861000D01*
X75311000Y-30226000D02*
X75311000Y-24511000D01*
X74549000Y-23749000D02*
X74549000Y-20447000D01*
X28321000Y-17653000D02*
X27940000Y-18034000D01*
X71628000Y-21082000D02*
X73406000Y-19304000D01*
X74549000Y-20447000D02*
X73406000Y-19304000D01*
X28321000Y-17653000D02*
X28321000Y-15621000D01*
G04 #@! TO.N,Net-(P1-SDA)*
X70858442Y-18870058D02*
X71948500Y-17780000D01*
X73025000Y-31623000D02*
X72517000Y-32131000D01*
X75946000Y-20288365D02*
X75946000Y-20574000D01*
X35941000Y-17399000D02*
X35941000Y-15621000D01*
X35687000Y-17653000D02*
X35941000Y-17399000D01*
X76200000Y-30734000D02*
X75311000Y-31623000D01*
X73437635Y-17780000D02*
X75946000Y-20288365D01*
X70858442Y-18921382D02*
X70858442Y-18870058D01*
X74549000Y-35052000D02*
X74549000Y-36703000D01*
X74549000Y-36703000D02*
X75057000Y-37211000D01*
X16637000Y-19177000D02*
X16510000Y-19304000D01*
X75057000Y-37211000D02*
X75819000Y-37211000D01*
X74168000Y-34671000D02*
X74549000Y-35052000D01*
X75946000Y-20574000D02*
X76200000Y-20828000D01*
X35687000Y-18542000D02*
X35687000Y-17653000D01*
X16510000Y-35941000D02*
X21844000Y-35941000D01*
X72517000Y-34290000D02*
X72898000Y-34671000D01*
X76200000Y-20828000D02*
X76200000Y-30734000D01*
X72517000Y-32131000D02*
X72517000Y-34290000D01*
X21844000Y-19177000D02*
X16637000Y-19177000D01*
X75311000Y-31623000D02*
X73025000Y-31623000D01*
X71948500Y-17780000D02*
X73437635Y-17780000D01*
X72898000Y-34671000D02*
X74168000Y-34671000D01*
G04 #@! TO.N,Net-(P1-VCC)*
X68326000Y-23749000D02*
X68326000Y-36449000D01*
X23241000Y-22225000D02*
X23241000Y-18796000D01*
X21082000Y-34671000D02*
X22479000Y-33274000D01*
X22479000Y-22987000D02*
X23241000Y-22225000D01*
X22479000Y-18034000D02*
X19050000Y-18034000D01*
X55245000Y-21971000D02*
X55245000Y-25211000D01*
X71755000Y-38481000D02*
X73279000Y-38481000D01*
X55245000Y-25211000D02*
X55372000Y-25338000D01*
X71059000Y-37785000D02*
X71755000Y-38481000D01*
X23241000Y-18796000D02*
X22479000Y-18034000D01*
X22479000Y-25019000D02*
X22479000Y-22987000D01*
X73406000Y-21844000D02*
X70231000Y-21844000D01*
X69662000Y-37785000D02*
X71059000Y-37785000D01*
X19050000Y-34671000D02*
X21082000Y-34671000D01*
X22479000Y-33274000D02*
X22479000Y-25019000D01*
X61406000Y-21844000D02*
X73406000Y-21844000D01*
X70231000Y-21844000D02*
X68326000Y-23749000D01*
X57912000Y-25338000D02*
X61406000Y-21844000D01*
X57912000Y-25338000D02*
X54102000Y-25338000D01*
X68326000Y-36449000D02*
X69662000Y-37785000D01*
G04 #@! TO.N,/LED*
X39243000Y-38100000D02*
X38481000Y-38862000D01*
X44568000Y-37093000D02*
X43561000Y-38100000D01*
X43561000Y-38100000D02*
X39243000Y-38100000D01*
X38481000Y-38862000D02*
X38481000Y-41021000D01*
X44568000Y-36068000D02*
X44568000Y-37093000D01*
G04 #@! TO.N,/5V*
X67310000Y-29845000D02*
X66421000Y-28956000D01*
X55769000Y-32893000D02*
X56642000Y-32020000D01*
X68961000Y-41021000D02*
X68961000Y-38227000D01*
X67310000Y-36576000D02*
X67310000Y-29845000D01*
X56735000Y-28863000D02*
X56642000Y-28956000D01*
X60105000Y-28863000D02*
X56735000Y-28863000D01*
X66421000Y-28956000D02*
X60198000Y-28956000D01*
X56642000Y-32020000D02*
X56642000Y-30288000D01*
X60198000Y-28956000D02*
X60105000Y-28863000D01*
X56642000Y-28956000D02*
X56642000Y-30288000D01*
X68961000Y-38227000D02*
X67310000Y-36576000D01*
X54102000Y-30288000D02*
X56642000Y-30288000D01*
G04 #@! TO.N,Net-(Q1-G)*
X57912000Y-33036000D02*
X57769000Y-32893000D01*
X57912000Y-35608500D02*
X57912000Y-33036000D01*
X57912000Y-32750000D02*
X57912000Y-30288000D01*
X57706500Y-35814000D02*
X57912000Y-35608500D01*
X57769000Y-32893000D02*
X57912000Y-32750000D01*
G04 #@! TO.N,Net-(Q2-B)*
X55495500Y-34528000D02*
X55831500Y-34864000D01*
X52959000Y-34528000D02*
X55495500Y-34528000D01*
G04 #@! TO.N,Net-(U1-GPIO19)*
X43053000Y-17653000D02*
X41021000Y-15621000D01*
X52705000Y-19050000D02*
X51308000Y-17653000D01*
X52705000Y-20119498D02*
X52705000Y-19050000D01*
X52959000Y-32528000D02*
X52832000Y-32655000D01*
X49800000Y-32655000D02*
X49088000Y-31943000D01*
X49088000Y-23736498D02*
X52705000Y-20119498D01*
X52832000Y-32655000D02*
X49800000Y-32655000D01*
X49088000Y-31943000D02*
X49088000Y-23736498D01*
X51308000Y-17653000D02*
X43053000Y-17653000D01*
G04 #@! TD*
D28*
X59309000Y-21292500D03*
X60198000Y-31242000D03*
X66675000Y-19213752D03*
X28321000Y-17653000D03*
X21971000Y-21336000D03*
X21844000Y-19177000D03*
X21844000Y-35941000D03*
X35687000Y-18542000D03*
X70858442Y-18921382D03*
X22479000Y-25019000D03*
X55245000Y-21971000D03*
X60198000Y-28956000D03*
X23241000Y-41021000D03*
X25781000Y-41021000D03*
X28321000Y-41021000D03*
X30861000Y-41021000D03*
X33401000Y-41021000D03*
X35941000Y-41021000D03*
X38481000Y-41021000D03*
X41021000Y-41021000D03*
X43561000Y-41021000D03*
X46101000Y-41021000D03*
X48641000Y-41021000D03*
X51181000Y-41021000D03*
X53721000Y-41021000D03*
X56261000Y-41021000D03*
X58801000Y-41021000D03*
X61341000Y-41021000D03*
X63881000Y-41021000D03*
X66421000Y-41021000D03*
X68961000Y-41021000D03*
X68958280Y-15624680D03*
X66418280Y-15624680D03*
X63881000Y-15621000D03*
X61341000Y-15621000D03*
X58801000Y-15621000D03*
X56261000Y-15621000D03*
X53721000Y-15621000D03*
X51181000Y-15621000D03*
X48641000Y-15621000D03*
X46101000Y-15621000D03*
X43561000Y-15621000D03*
X41021000Y-15621000D03*
X38481000Y-15621000D03*
X35941000Y-15621000D03*
X33401000Y-15621000D03*
X30861000Y-15621000D03*
X28321000Y-15621000D03*
X25781000Y-15621000D03*
X23241000Y-15621000D03*
X74019000Y-33271000D03*
X75819000Y-34671000D03*
X73279000Y-35941000D03*
X75819000Y-37211000D03*
X73279000Y-38481000D03*
X18310000Y-39881000D03*
X16510000Y-38481000D03*
X19050000Y-37211000D03*
X16510000Y-35941000D03*
X19050000Y-34671000D03*
X18310000Y-23244000D03*
X16510000Y-21844000D03*
X19050000Y-20574000D03*
X16510000Y-19304000D03*
X19050000Y-18034000D03*
X40005000Y-26162000D03*
X32385000Y-26162000D03*
X40005000Y-31242000D03*
X32385000Y-31242000D03*
X74146000Y-16634000D03*
X75946000Y-18034000D03*
X73406000Y-19304000D03*
X75946000Y-20574000D03*
X73406000Y-21844000D03*
M02*
