G04 #@! TF.GenerationSoftware,KiCad,Pcbnew,(7.0.0)*
G04 #@! TF.CreationDate,2023-03-01T15:25:45+01:00*
G04 #@! TF.ProjectId,VR-Shield,56522d53-6869-4656-9c64-2e6b69636164,v02*
G04 #@! TF.SameCoordinates,Original*
G04 #@! TF.FileFunction,Copper,L2,Bot*
G04 #@! TF.FilePolarity,Positive*
%FSLAX46Y46*%
G04 Gerber Fmt 4.6, Leading zero omitted, Abs format (unit mm)*
G04 Created by KiCad (PCBNEW (7.0.0)) date 2023-03-01 15:25:45*
%MOMM*%
%LPD*%
G01*
G04 APERTURE LIST*
G04 Aperture macros list*
%AMRoundRect*
0 Rectangle with rounded corners*
0 $1 Rounding radius*
0 $2 $3 $4 $5 $6 $7 $8 $9 X,Y pos of 4 corners*
0 Add a 4 corners polygon primitive as box body*
4,1,4,$2,$3,$4,$5,$6,$7,$8,$9,$2,$3,0*
0 Add four circle primitives for the rounded corners*
1,1,$1+$1,$2,$3*
1,1,$1+$1,$4,$5*
1,1,$1+$1,$6,$7*
1,1,$1+$1,$8,$9*
0 Add four rect primitives between the rounded corners*
20,1,$1+$1,$2,$3,$4,$5,0*
20,1,$1+$1,$4,$5,$6,$7,0*
20,1,$1+$1,$6,$7,$8,$9,0*
20,1,$1+$1,$8,$9,$2,$3,0*%
G04 Aperture macros list end*
G04 #@! TA.AperFunction,ComponentPad*
%ADD10R,1.200000X2.000000*%
G04 #@! TD*
G04 #@! TA.AperFunction,ComponentPad*
%ADD11O,1.200000X2.000000*%
G04 #@! TD*
G04 #@! TA.AperFunction,ComponentPad*
%ADD12R,1.300000X1.300000*%
G04 #@! TD*
G04 #@! TA.AperFunction,ComponentPad*
%ADD13C,1.300000*%
G04 #@! TD*
G04 #@! TA.AperFunction,SMDPad,CuDef*
%ADD14RoundRect,0.150000X-0.625000X0.150000X-0.625000X-0.150000X0.625000X-0.150000X0.625000X0.150000X0*%
G04 #@! TD*
G04 #@! TA.AperFunction,SMDPad,CuDef*
%ADD15RoundRect,0.250000X-0.650000X0.350000X-0.650000X-0.350000X0.650000X-0.350000X0.650000X0.350000X0*%
G04 #@! TD*
G04 #@! TA.AperFunction,ComponentPad*
%ADD16C,1.397000*%
G04 #@! TD*
G04 #@! TA.AperFunction,SMDPad,CuDef*
%ADD17RoundRect,0.250000X-0.475000X0.337500X-0.475000X-0.337500X0.475000X-0.337500X0.475000X0.337500X0*%
G04 #@! TD*
G04 #@! TA.AperFunction,SMDPad,CuDef*
%ADD18RoundRect,0.150000X0.512500X0.150000X-0.512500X0.150000X-0.512500X-0.150000X0.512500X-0.150000X0*%
G04 #@! TD*
G04 #@! TA.AperFunction,SMDPad,CuDef*
%ADD19RoundRect,0.250000X0.450000X-0.350000X0.450000X0.350000X-0.450000X0.350000X-0.450000X-0.350000X0*%
G04 #@! TD*
G04 #@! TA.AperFunction,SMDPad,CuDef*
%ADD20RoundRect,0.250000X0.475000X-0.337500X0.475000X0.337500X-0.475000X0.337500X-0.475000X-0.337500X0*%
G04 #@! TD*
G04 #@! TA.AperFunction,SMDPad,CuDef*
%ADD21RoundRect,0.250000X0.350000X0.450000X-0.350000X0.450000X-0.350000X-0.450000X0.350000X-0.450000X0*%
G04 #@! TD*
G04 #@! TA.AperFunction,SMDPad,CuDef*
%ADD22RoundRect,0.250000X0.325000X0.450000X-0.325000X0.450000X-0.325000X-0.450000X0.325000X-0.450000X0*%
G04 #@! TD*
G04 #@! TA.AperFunction,ViaPad*
%ADD23C,1.300000*%
G04 #@! TD*
G04 #@! TA.AperFunction,Conductor*
%ADD24C,1.000000*%
G04 #@! TD*
G04 #@! TA.AperFunction,Conductor*
%ADD25C,0.500000*%
G04 #@! TD*
%ADD26C,0.350000*%
G04 APERTURE END LIST*
D10*
X23240999Y-41020999D03*
D11*
X25780999Y-41020999D03*
X28320999Y-41020999D03*
X30860999Y-41020999D03*
X33400999Y-41020999D03*
X35940999Y-41020999D03*
X38480999Y-41020999D03*
X41020999Y-41020999D03*
X43560999Y-41020999D03*
X46100999Y-41020999D03*
X48640999Y-41020999D03*
X51180999Y-41020999D03*
X53720999Y-41020999D03*
X56260999Y-41020999D03*
X58800999Y-41020999D03*
X61340999Y-41020999D03*
X63880999Y-41020999D03*
X66420999Y-41020999D03*
X68960999Y-41020999D03*
X68958279Y-15624679D03*
X66418279Y-15624679D03*
X63880999Y-15620999D03*
X61340999Y-15620999D03*
X58800999Y-15620999D03*
X56260999Y-15620999D03*
X53720999Y-15620999D03*
X51180999Y-15620999D03*
X48640999Y-15620999D03*
X46100999Y-15620999D03*
X43560999Y-15620999D03*
X41020999Y-15620999D03*
X38480999Y-15620999D03*
X35940999Y-15620999D03*
X33400999Y-15620999D03*
X30860999Y-15620999D03*
X28320999Y-15620999D03*
X25780999Y-15620999D03*
X23240999Y-15620999D03*
D12*
X75818999Y-34670999D03*
D13*
X73279000Y-35941000D03*
X75819000Y-37211000D03*
X73279000Y-38481000D03*
D12*
X16509999Y-38480999D03*
D13*
X19050000Y-37211000D03*
X16510000Y-35941000D03*
X19050000Y-34671000D03*
D12*
X16509999Y-21843999D03*
D13*
X19050000Y-20574000D03*
X16510000Y-19304000D03*
X19050000Y-18034000D03*
D14*
X76073000Y-27559000D03*
X76073000Y-28559000D03*
D15*
X73548000Y-26259000D03*
X73548000Y-29859000D03*
D16*
X40005000Y-26162000D03*
X32385000Y-26162000D03*
X40005000Y-31242000D03*
X32385000Y-31242000D03*
D17*
X62246000Y-28934500D03*
X62246000Y-31009500D03*
D18*
X67066500Y-27117000D03*
X67066500Y-28067000D03*
X67066500Y-29017000D03*
X64791500Y-29017000D03*
X64791500Y-27117000D03*
D19*
X62246000Y-26781000D03*
X62246000Y-24781000D03*
D20*
X68961000Y-29104500D03*
X68961000Y-27029500D03*
D21*
X66675000Y-30988000D03*
X64675000Y-30988000D03*
D22*
X66954000Y-24892000D03*
X64904000Y-24892000D03*
D12*
X75945999Y-18033999D03*
D13*
X73406000Y-19304000D03*
X75946000Y-20574000D03*
X73406000Y-21844000D03*
D23*
X59309000Y-21292500D03*
X60198000Y-31242000D03*
X66675000Y-19213752D03*
X28321000Y-17653000D03*
X21971000Y-21336000D03*
X21844000Y-19177000D03*
X21844000Y-35941000D03*
X35687000Y-18542000D03*
X70858442Y-18921382D03*
X22479000Y-25019000D03*
X55245000Y-21971000D03*
X60198000Y-28956000D03*
D24*
X59309000Y-21292500D02*
X58674000Y-21927500D01*
D25*
X68665028Y-27029500D02*
X68961000Y-27029500D01*
X68961000Y-27029500D02*
X69490500Y-27559000D01*
X68707000Y-31115000D02*
X67564000Y-32258000D01*
D24*
X58674000Y-21927500D02*
X58674000Y-29718000D01*
D25*
X74281949Y-31115000D02*
X68707000Y-31115000D01*
X76073000Y-28559000D02*
X76073000Y-29323949D01*
X74398000Y-27559000D02*
X75148000Y-26809000D01*
X67066500Y-28067000D02*
X67627528Y-28067000D01*
X77298000Y-28112000D02*
X76851000Y-28559000D01*
X67564000Y-32258000D02*
X65945000Y-32258000D01*
X76073000Y-29323949D02*
X74281949Y-31115000D01*
D24*
X60452000Y-30988000D02*
X64675000Y-30988000D01*
D25*
X75148000Y-26809000D02*
X76974000Y-26809000D01*
X69490500Y-27559000D02*
X74398000Y-27559000D01*
D24*
X60198000Y-31242000D02*
X60452000Y-30988000D01*
X58674000Y-29718000D02*
X60198000Y-31242000D01*
D25*
X62267500Y-30988000D02*
X62246000Y-31009500D01*
X65945000Y-32258000D02*
X64675000Y-30988000D01*
X67627528Y-28067000D02*
X68665028Y-27029500D01*
X76851000Y-28559000D02*
X76073000Y-28559000D01*
X77298000Y-27133000D02*
X77298000Y-28112000D01*
X76974000Y-26809000D02*
X77298000Y-27133000D01*
X28321000Y-17653000D02*
X28532000Y-17442000D01*
X20447000Y-18415000D02*
X20447000Y-19812000D01*
X19050000Y-20574000D02*
X19177000Y-20574000D01*
X28532000Y-17442000D02*
X64903248Y-17442000D01*
X28321000Y-17653000D02*
X28067000Y-17399000D01*
X20447000Y-19812000D02*
X21971000Y-21336000D01*
X64903248Y-17442000D02*
X66675000Y-19213752D01*
X21463000Y-17399000D02*
X20447000Y-18415000D01*
X28067000Y-17399000D02*
X21463000Y-17399000D01*
X20955000Y-35052000D02*
X20955000Y-24638000D01*
X20955000Y-24638000D02*
X24638000Y-20955000D01*
X28829000Y-19050000D02*
X29587000Y-18292000D01*
X64515500Y-20192500D02*
X37337500Y-20192500D01*
X24638000Y-20955000D02*
X24638000Y-18415000D01*
X27178000Y-18415000D02*
X27813000Y-19050000D01*
X21844000Y-35941000D02*
X20955000Y-35052000D01*
X64770000Y-20447000D02*
X64515500Y-20192500D01*
X21844000Y-19177000D02*
X22606000Y-18415000D01*
X22606000Y-18415000D02*
X27178000Y-18415000D01*
X27813000Y-19050000D02*
X28829000Y-19050000D01*
X24638000Y-18415000D02*
X27178000Y-18415000D01*
X69332824Y-20447000D02*
X64770000Y-20447000D01*
X29587000Y-18292000D02*
X35437000Y-18292000D01*
X37337500Y-20192500D02*
X35687000Y-18542000D01*
X70858442Y-18921382D02*
X69332824Y-20447000D01*
X35437000Y-18292000D02*
X35687000Y-18542000D01*
X34978497Y-19177000D02*
X36883497Y-21082000D01*
X29845000Y-19177000D02*
X34978497Y-19177000D01*
X26859000Y-19115000D02*
X26859000Y-19239000D01*
X26859000Y-19239000D02*
X27559000Y-19939000D01*
X22479000Y-25019000D02*
X23749000Y-25019000D01*
X29083000Y-19939000D02*
X29845000Y-19177000D01*
X54356000Y-21082000D02*
X55245000Y-21971000D01*
X26289000Y-22479000D02*
X26289000Y-19685000D01*
X23749000Y-25019000D02*
X26289000Y-22479000D01*
X26289000Y-19685000D02*
X26859000Y-19115000D01*
X36883497Y-21082000D02*
X54356000Y-21082000D01*
X27559000Y-19939000D02*
X29083000Y-19939000D01*
X62246000Y-26781000D02*
X63484000Y-26781000D01*
X63484000Y-26781000D02*
X63500000Y-26797000D01*
X63500000Y-26797000D02*
X63500000Y-28829000D01*
X60219500Y-28934500D02*
X60198000Y-28956000D01*
X62246000Y-28934500D02*
X62328500Y-29017000D01*
X62328500Y-29017000D02*
X64791500Y-29017000D01*
X62246000Y-28934500D02*
X60219500Y-28934500D01*
X63688000Y-29017000D02*
X64791500Y-29017000D01*
X63500000Y-28829000D02*
X63688000Y-29017000D01*
X75449472Y-27559000D02*
X76073000Y-27559000D01*
X74306472Y-28702000D02*
X75449472Y-27559000D01*
X68873500Y-29017000D02*
X68961000Y-29104500D01*
X69363500Y-28702000D02*
X74306472Y-28702000D01*
X68961000Y-29104500D02*
X69363500Y-28702000D01*
X67066500Y-29017000D02*
X68873500Y-29017000D01*
X67066500Y-25004500D02*
X66954000Y-24892000D01*
X67066500Y-27117000D02*
X67066500Y-25004500D01*
X64904000Y-24892000D02*
X62357000Y-24892000D01*
X62357000Y-24892000D02*
X62246000Y-24781000D01*
X65659000Y-28067000D02*
X65151000Y-28067000D01*
X64791500Y-27707500D02*
X64791500Y-27117000D01*
X66675000Y-30988000D02*
X66929000Y-30734000D01*
X66929000Y-30480000D02*
X65954000Y-29505000D01*
X65954000Y-29505000D02*
X65954000Y-28362000D01*
X66929000Y-30734000D02*
X66929000Y-30480000D01*
X65151000Y-28067000D02*
X64791500Y-27707500D01*
X65954000Y-28362000D02*
X65659000Y-28067000D01*
D26*
X59309000Y-21292500D03*
X60198000Y-31242000D03*
X66675000Y-19213752D03*
X28321000Y-17653000D03*
X21971000Y-21336000D03*
X21844000Y-19177000D03*
X21844000Y-35941000D03*
X35687000Y-18542000D03*
X70858442Y-18921382D03*
X22479000Y-25019000D03*
X55245000Y-21971000D03*
X60198000Y-28956000D03*
X23241000Y-41021000D03*
X25781000Y-41021000D03*
X28321000Y-41021000D03*
X30861000Y-41021000D03*
X33401000Y-41021000D03*
X35941000Y-41021000D03*
X38481000Y-41021000D03*
X41021000Y-41021000D03*
X43561000Y-41021000D03*
X46101000Y-41021000D03*
X48641000Y-41021000D03*
X51181000Y-41021000D03*
X53721000Y-41021000D03*
X56261000Y-41021000D03*
X58801000Y-41021000D03*
X61341000Y-41021000D03*
X63881000Y-41021000D03*
X66421000Y-41021000D03*
X68961000Y-41021000D03*
X68958280Y-15624680D03*
X66418280Y-15624680D03*
X63881000Y-15621000D03*
X61341000Y-15621000D03*
X58801000Y-15621000D03*
X56261000Y-15621000D03*
X53721000Y-15621000D03*
X51181000Y-15621000D03*
X48641000Y-15621000D03*
X46101000Y-15621000D03*
X43561000Y-15621000D03*
X41021000Y-15621000D03*
X38481000Y-15621000D03*
X35941000Y-15621000D03*
X33401000Y-15621000D03*
X30861000Y-15621000D03*
X28321000Y-15621000D03*
X25781000Y-15621000D03*
X23241000Y-15621000D03*
X74019000Y-33271000D03*
X75819000Y-34671000D03*
X73279000Y-35941000D03*
X75819000Y-37211000D03*
X73279000Y-38481000D03*
X18310000Y-39881000D03*
X16510000Y-38481000D03*
X19050000Y-37211000D03*
X16510000Y-35941000D03*
X19050000Y-34671000D03*
X18310000Y-23244000D03*
X16510000Y-21844000D03*
X19050000Y-20574000D03*
X16510000Y-19304000D03*
X19050000Y-18034000D03*
X40005000Y-26162000D03*
X32385000Y-26162000D03*
X40005000Y-31242000D03*
X32385000Y-31242000D03*
X74146000Y-16634000D03*
X75946000Y-18034000D03*
X73406000Y-19304000D03*
X75946000Y-20574000D03*
X73406000Y-21844000D03*
M02*
