%TF.GenerationSoftware,KiCad,Pcbnew,(7.0.0)*%
%TF.CreationDate,2023-03-01T15:25:45+01:00*%
%TF.ProjectId,VR-Shield,56522d53-6869-4656-9c64-2e6b69636164,v02*%
%TF.SameCoordinates,Original*%
%TF.FileFunction,Plated,1,2,PTH,Drill*%
%TF.FilePolarity,Positive*%
%FSLAX46Y46*%
G04 Gerber Fmt 4.6, Leading zero omitted, Abs format (unit mm)*
G04 Created by KiCad (PCBNEW (7.0.0)) date 2023-03-01 15:25:45*
%MOMM*%
%LPD*%
G01*
G04 APERTURE LIST*
%TA.AperFunction,ViaDrill*%
%ADD10C,0.600000*%
%TD*%
%TA.AperFunction,ComponentDrill*%
%ADD11C,0.800000*%
%TD*%
%TA.AperFunction,ComponentDrill*%
%ADD12C,0.812800*%
%TD*%
G04 APERTURE END LIST*
D10*
X21844000Y-19177000D03*
X21844000Y-35941000D03*
X21971000Y-21336000D03*
X22479000Y-25019000D03*
X28321000Y-17653000D03*
X35687000Y-18542000D03*
X55245000Y-21971000D03*
X59309000Y-21292500D03*
X60198000Y-28956000D03*
X60198000Y-31242000D03*
X66675000Y-19213752D03*
X70858442Y-18921382D03*
D11*
%TO.C,P2*%
X16510000Y-19304000D03*
X16510000Y-21844000D03*
%TO.C,P3*%
X16510000Y-35941000D03*
X16510000Y-38481000D03*
%TO.C,P2*%
X19050000Y-18034000D03*
X19050000Y-20574000D03*
%TO.C,P3*%
X19050000Y-34671000D03*
X19050000Y-37211000D03*
%TO.C,U1*%
X23241000Y-15621000D03*
X23241000Y-41021000D03*
X25781000Y-15621000D03*
X25781000Y-41021000D03*
X28321000Y-15621000D03*
X28321000Y-41021000D03*
X30861000Y-15621000D03*
X30861000Y-41021000D03*
X33401000Y-15621000D03*
X33401000Y-41021000D03*
X35941000Y-15621000D03*
X35941000Y-41021000D03*
X38481000Y-15621000D03*
X38481000Y-41021000D03*
X41021000Y-15621000D03*
X41021000Y-41021000D03*
X43561000Y-15621000D03*
X43561000Y-41021000D03*
X46101000Y-15621000D03*
X46101000Y-41021000D03*
X48641000Y-15621000D03*
X48641000Y-41021000D03*
X51181000Y-15621000D03*
X51181000Y-41021000D03*
X53721000Y-15621000D03*
X53721000Y-41021000D03*
X56261000Y-15621000D03*
X56261000Y-41021000D03*
X58801000Y-15621000D03*
X58801000Y-41021000D03*
X61341000Y-15621000D03*
X61341000Y-41021000D03*
X63881000Y-15621000D03*
X63881000Y-41021000D03*
X66418280Y-15624680D03*
X66421000Y-41021000D03*
X68958280Y-15624680D03*
X68961000Y-41021000D03*
%TO.C,P4*%
X73279000Y-35941000D03*
X73279000Y-38481000D03*
%TO.C,P1*%
X73406000Y-19304000D03*
X73406000Y-21844000D03*
%TO.C,P4*%
X75819000Y-34671000D03*
X75819000Y-37211000D03*
%TO.C,P1*%
X75946000Y-18034000D03*
X75946000Y-20574000D03*
D12*
%TO.C,CB1*%
X32385000Y-26162000D03*
X32385000Y-31242000D03*
X40005000Y-26162000D03*
X40005000Y-31242000D03*
M02*
