G04 #@! TF.GenerationSoftware,KiCad,Pcbnew,(7.0.0)*
G04 #@! TF.CreationDate,2023-02-27T13:13:10+01:00*
G04 #@! TF.ProjectId,VR-Shield,56522d53-6869-4656-9c64-2e6b69636164,v02*
G04 #@! TF.SameCoordinates,Original*
G04 #@! TF.FileFunction,Copper,L2,Bot*
G04 #@! TF.FilePolarity,Positive*
%FSLAX46Y46*%
G04 Gerber Fmt 4.6, Leading zero omitted, Abs format (unit mm)*
G04 Created by KiCad (PCBNEW (7.0.0)) date 2023-02-27 13:13:10*
%MOMM*%
%LPD*%
G01*
G04 APERTURE LIST*
G04 Aperture macros list*
%AMRoundRect*
0 Rectangle with rounded corners*
0 $1 Rounding radius*
0 $2 $3 $4 $5 $6 $7 $8 $9 X,Y pos of 4 corners*
0 Add a 4 corners polygon primitive as box body*
4,1,4,$2,$3,$4,$5,$6,$7,$8,$9,$2,$3,0*
0 Add four circle primitives for the rounded corners*
1,1,$1+$1,$2,$3*
1,1,$1+$1,$4,$5*
1,1,$1+$1,$6,$7*
1,1,$1+$1,$8,$9*
0 Add four rect primitives between the rounded corners*
20,1,$1+$1,$2,$3,$4,$5,0*
20,1,$1+$1,$4,$5,$6,$7,0*
20,1,$1+$1,$6,$7,$8,$9,0*
20,1,$1+$1,$8,$9,$2,$3,0*%
G04 Aperture macros list end*
G04 #@! TA.AperFunction,SMDPad,CuDef*
%ADD10RoundRect,0.250000X0.475000X-0.337500X0.475000X0.337500X-0.475000X0.337500X-0.475000X-0.337500X0*%
G04 #@! TD*
G04 #@! TA.AperFunction,SMDPad,CuDef*
%ADD11RoundRect,0.250000X-0.475000X0.337500X-0.475000X-0.337500X0.475000X-0.337500X0.475000X0.337500X0*%
G04 #@! TD*
G04 #@! TA.AperFunction,SMDPad,CuDef*
%ADD12RoundRect,0.250000X0.325000X0.450000X-0.325000X0.450000X-0.325000X-0.450000X0.325000X-0.450000X0*%
G04 #@! TD*
G04 #@! TA.AperFunction,SMDPad,CuDef*
%ADD13RoundRect,0.150000X0.512500X0.150000X-0.512500X0.150000X-0.512500X-0.150000X0.512500X-0.150000X0*%
G04 #@! TD*
G04 #@! TA.AperFunction,SMDPad,CuDef*
%ADD14RoundRect,0.250000X0.450000X-0.350000X0.450000X0.350000X-0.450000X0.350000X-0.450000X-0.350000X0*%
G04 #@! TD*
G04 #@! TA.AperFunction,SMDPad,CuDef*
%ADD15RoundRect,0.250000X0.350000X0.450000X-0.350000X0.450000X-0.350000X-0.450000X0.350000X-0.450000X0*%
G04 #@! TD*
G04 #@! TA.AperFunction,ComponentPad*
%ADD16R,1.300000X1.300000*%
G04 #@! TD*
G04 #@! TA.AperFunction,ComponentPad*
%ADD17C,1.300000*%
G04 #@! TD*
G04 #@! TA.AperFunction,ComponentPad*
%ADD18O,1.200000X2.000000*%
G04 #@! TD*
G04 #@! TA.AperFunction,ComponentPad*
%ADD19R,1.200000X2.000000*%
G04 #@! TD*
G04 #@! TA.AperFunction,SMDPad,CuDef*
%ADD20RoundRect,0.150000X-0.625000X0.150000X-0.625000X-0.150000X0.625000X-0.150000X0.625000X0.150000X0*%
G04 #@! TD*
G04 #@! TA.AperFunction,SMDPad,CuDef*
%ADD21RoundRect,0.250000X-0.650000X0.350000X-0.650000X-0.350000X0.650000X-0.350000X0.650000X0.350000X0*%
G04 #@! TD*
G04 #@! TA.AperFunction,ComponentPad*
%ADD22C,1.397000*%
G04 #@! TD*
G04 #@! TA.AperFunction,ViaPad*
%ADD23C,1.300000*%
G04 #@! TD*
G04 #@! TA.AperFunction,Conductor*
%ADD24C,0.500000*%
G04 #@! TD*
G04 #@! TA.AperFunction,Conductor*
%ADD25C,1.000000*%
G04 #@! TD*
G04 #@! TA.AperFunction,Profile*
%ADD26C,0.100000*%
G04 #@! TD*
G04 APERTURE END LIST*
D10*
G04 #@! TO.P,C1,1*
G04 #@! TO.N,Net-(BT1-+)*
X173355000Y-110892500D03*
G04 #@! TO.P,C1,2*
G04 #@! TO.N,GND*
X173355000Y-108817500D03*
G04 #@! TD*
D11*
G04 #@! TO.P,C2,2*
G04 #@! TO.N,GND*
X166640000Y-112797500D03*
G04 #@! TO.P,C2,1*
G04 #@! TO.N,/5V*
X166640000Y-110722500D03*
G04 #@! TD*
D12*
G04 #@! TO.P,D2,1,K*
G04 #@! TO.N,Net-(D2-K)*
X171348000Y-106680000D03*
G04 #@! TO.P,D2,2,A*
G04 #@! TO.N,Net-(D2-A)*
X169298000Y-106680000D03*
G04 #@! TD*
D13*
G04 #@! TO.P,U2,5,PROG*
G04 #@! TO.N,Net-(U2-PROG)*
X169185500Y-108905000D03*
G04 #@! TO.P,U2,4,V_{DD}*
G04 #@! TO.N,/5V*
X169185500Y-110805000D03*
G04 #@! TO.P,U2,3,V_{BAT}*
G04 #@! TO.N,Net-(BT1-+)*
X171460500Y-110805000D03*
G04 #@! TO.P,U2,2,V_{SS}*
G04 #@! TO.N,GND*
X171460500Y-109855000D03*
G04 #@! TO.P,U2,1,STAT*
G04 #@! TO.N,Net-(D2-K)*
X171460500Y-108905000D03*
G04 #@! TD*
D14*
G04 #@! TO.P,R5,2*
G04 #@! TO.N,Net-(D2-A)*
X166640000Y-106569000D03*
G04 #@! TO.P,R5,1*
G04 #@! TO.N,/5V*
X166640000Y-108569000D03*
G04 #@! TD*
D15*
G04 #@! TO.P,R4,1*
G04 #@! TO.N,Net-(U2-PROG)*
X171069000Y-112776000D03*
G04 #@! TO.P,R4,2*
G04 #@! TO.N,GND*
X169069000Y-112776000D03*
G04 #@! TD*
D16*
G04 #@! TO.P,P4,1,GND*
G04 #@! TO.N,GND*
X180212999Y-116458999D03*
D17*
G04 #@! TO.P,P4,2,SCL*
G04 #@! TO.N,Net-(P1-SCL)*
X177673000Y-117729000D03*
G04 #@! TO.P,P4,3,SDA*
G04 #@! TO.N,Net-(P1-SDA)*
X180213000Y-118999000D03*
G04 #@! TO.P,P4,4,VCC*
G04 #@! TO.N,Net-(P1-VCC)*
X177673000Y-120269000D03*
G04 #@! TD*
D16*
G04 #@! TO.P,P3,1,GND*
G04 #@! TO.N,GND*
X120903999Y-120268999D03*
D17*
G04 #@! TO.P,P3,2,SCL*
G04 #@! TO.N,Net-(P1-SCL)*
X123444000Y-118999000D03*
G04 #@! TO.P,P3,3,SDA*
G04 #@! TO.N,Net-(P1-SDA)*
X120904000Y-117729000D03*
G04 #@! TO.P,P3,4,VCC*
G04 #@! TO.N,Net-(P1-VCC)*
X123444000Y-116459000D03*
G04 #@! TD*
G04 #@! TO.P,P2,4,VCC*
G04 #@! TO.N,Net-(P1-VCC)*
X123444000Y-99822000D03*
G04 #@! TO.P,P2,3,SDA*
G04 #@! TO.N,Net-(P1-SDA)*
X120904000Y-101092000D03*
G04 #@! TO.P,P2,2,SCL*
G04 #@! TO.N,Net-(P1-SCL)*
X123444000Y-102362000D03*
D16*
G04 #@! TO.P,P2,1,GND*
G04 #@! TO.N,GND*
X120903999Y-103631999D03*
G04 #@! TD*
G04 #@! TO.P,P1,1,GND*
G04 #@! TO.N,GND*
X180339999Y-99821999D03*
D17*
G04 #@! TO.P,P1,2,SCL*
G04 #@! TO.N,Net-(P1-SCL)*
X177800000Y-101092000D03*
G04 #@! TO.P,P1,3,SDA*
G04 #@! TO.N,Net-(P1-SDA)*
X180340000Y-102362000D03*
G04 #@! TO.P,P1,4,VCC*
G04 #@! TO.N,Net-(P1-VCC)*
X177800000Y-103632000D03*
G04 #@! TD*
D18*
G04 #@! TO.P,U1,38,GND*
G04 #@! TO.N,GND*
X127634999Y-97408999D03*
G04 #@! TO.P,U1,37,GPIO23*
G04 #@! TO.N,unconnected-(U1-GPIO23-Pad37)*
X130174999Y-97408999D03*
G04 #@! TO.P,U1,36,GPIO22*
G04 #@! TO.N,Net-(P1-SCL)*
X132714999Y-97408999D03*
G04 #@! TO.P,U1,35,U0TXD/GPIO1*
G04 #@! TO.N,unconnected-(U1-U0TXD{slash}GPIO1-Pad35)*
X135254999Y-97408999D03*
G04 #@! TO.P,U1,34,U0RXD/GPIO3*
G04 #@! TO.N,unconnected-(U1-U0RXD{slash}GPIO3-Pad34)*
X137794999Y-97408999D03*
G04 #@! TO.P,U1,33,GPIO21*
G04 #@! TO.N,Net-(P1-SDA)*
X140334999Y-97408999D03*
G04 #@! TO.P,U1,32,GND*
G04 #@! TO.N,unconnected-(U1-GND-Pad32)*
X142874999Y-97408999D03*
G04 #@! TO.P,U1,31,GPIO19*
G04 #@! TO.N,Net-(U1-GPIO19)*
X145414999Y-97408999D03*
G04 #@! TO.P,U1,30,GPIO18*
G04 #@! TO.N,unconnected-(U1-GPIO18-Pad30)*
X147954999Y-97408999D03*
G04 #@! TO.P,U1,29,\u002AGPIO5*
G04 #@! TO.N,unconnected-(U1-\u002AGPIO5-Pad29)*
X150494999Y-97408999D03*
G04 #@! TO.P,U1,28,GPIO17*
G04 #@! TO.N,unconnected-(U1-GPIO17-Pad28)*
X153034999Y-97408999D03*
G04 #@! TO.P,U1,27,GPIO16*
G04 #@! TO.N,unconnected-(U1-GPIO16-Pad27)*
X155574999Y-97408999D03*
G04 #@! TO.P,U1,26,ADC2_CH0/GPIO4*
G04 #@! TO.N,unconnected-(U1-ADC2_CH0{slash}GPIO4-Pad26)*
X158114999Y-97408999D03*
G04 #@! TO.P,U1,25,\u002AGPIO0/BOOT/ADC2_CH1*
G04 #@! TO.N,unconnected-(U1-\u002AGPIO0{slash}BOOT{slash}ADC2_CH1-Pad25)*
X160654999Y-97408999D03*
G04 #@! TO.P,U1,24,ADC2_CH2/\u002AGPIO2*
G04 #@! TO.N,unconnected-(U1-ADC2_CH2{slash}\u002AGPIO2-Pad24)*
X163194999Y-97408999D03*
G04 #@! TO.P,U1,23,\u002AMTDO/GPIO15/ADC2_CH3*
G04 #@! TO.N,unconnected-(U1-\u002AMTDO{slash}GPIO15{slash}ADC2_CH3-Pad23)*
X165734999Y-97408999D03*
G04 #@! TO.P,U1,22,SD_DATA1/GPIO8*
G04 #@! TO.N,unconnected-(U1-SD_DATA1{slash}GPIO8-Pad22)*
X168274999Y-97408999D03*
G04 #@! TO.P,U1,21,SD_DATA0/GPIO7*
G04 #@! TO.N,unconnected-(U1-SD_DATA0{slash}GPIO7-Pad21)*
X170812279Y-97412679D03*
G04 #@! TO.P,U1,20,SD_CLK/GPIO6*
G04 #@! TO.N,unconnected-(U1-SD_CLK{slash}GPIO6-Pad20)*
X173352279Y-97412679D03*
G04 #@! TO.P,U1,19,5V*
G04 #@! TO.N,/5V*
X173354999Y-122808999D03*
G04 #@! TO.P,U1,18,CMD*
G04 #@! TO.N,unconnected-(U1-CMD-Pad18)*
X170814999Y-122808999D03*
G04 #@! TO.P,U1,17,SD_DATA3/GPIO10*
G04 #@! TO.N,unconnected-(U1-SD_DATA3{slash}GPIO10-Pad17)*
X168274999Y-122808999D03*
G04 #@! TO.P,U1,16,SD_DATA2/GPIO9*
G04 #@! TO.N,unconnected-(U1-SD_DATA2{slash}GPIO9-Pad16)*
X165734999Y-122808999D03*
G04 #@! TO.P,U1,15,MTCK/GPIO13/ADC2_CH4*
G04 #@! TO.N,unconnected-(U1-MTCK{slash}GPIO13{slash}ADC2_CH4-Pad15)*
X163194999Y-122808999D03*
G04 #@! TO.P,U1,14,GND*
G04 #@! TO.N,GND*
X160654999Y-122808999D03*
G04 #@! TO.P,U1,13,\u002AMTDI/GPIO12/ADC2_CH5*
G04 #@! TO.N,unconnected-(U1-\u002AMTDI{slash}GPIO12{slash}ADC2_CH5-Pad13)*
X158114999Y-122808999D03*
G04 #@! TO.P,U1,12,MTMS/GPIO14/ADC2_CH6*
G04 #@! TO.N,unconnected-(U1-MTMS{slash}GPIO14{slash}ADC2_CH6-Pad12)*
X155574999Y-122808999D03*
G04 #@! TO.P,U1,11,ADC2_CH7/GPIO27*
G04 #@! TO.N,unconnected-(U1-ADC2_CH7{slash}GPIO27-Pad11)*
X153034999Y-122808999D03*
G04 #@! TO.P,U1,10,DAC_2/ADC2_CH9/GPIO26*
G04 #@! TO.N,unconnected-(U1-DAC_2{slash}ADC2_CH9{slash}GPIO26-Pad10)*
X150494999Y-122808999D03*
G04 #@! TO.P,U1,9,DAC_1/ADC2_CH8/GPIO25*
G04 #@! TO.N,unconnected-(U1-DAC_1{slash}ADC2_CH8{slash}GPIO25-Pad9)*
X147954999Y-122808999D03*
G04 #@! TO.P,U1,8,32K_XN/GPIO33/ADC1_CH5*
G04 #@! TO.N,unconnected-(U1-32K_XN{slash}GPIO33{slash}ADC1_CH5-Pad8)*
X145414999Y-122808999D03*
G04 #@! TO.P,U1,7,32K_XP/GPIO32/ADC1_CH4*
G04 #@! TO.N,/LED*
X142874999Y-122808999D03*
G04 #@! TO.P,U1,6,VDET_2/GPIO35/ADC1_CH7*
G04 #@! TO.N,unconnected-(U1-VDET_2{slash}GPIO35{slash}ADC1_CH7-Pad6)*
X140334999Y-122808999D03*
G04 #@! TO.P,U1,5,VDET_1/GPIO34/ADC1_CH6*
G04 #@! TO.N,unconnected-(U1-VDET_1{slash}GPIO34{slash}ADC1_CH6-Pad5)*
X137794999Y-122808999D03*
G04 #@! TO.P,U1,4,SENSOR_VN/GPIO39/ADC1_CH3*
G04 #@! TO.N,unconnected-(U1-SENSOR_VN{slash}GPIO39{slash}ADC1_CH3-Pad4)*
X135254999Y-122808999D03*
G04 #@! TO.P,U1,3,SENSOR_VP/GPIO36/ADC1_CH0*
G04 #@! TO.N,unconnected-(U1-SENSOR_VP{slash}GPIO36{slash}ADC1_CH0-Pad3)*
X132714999Y-122808999D03*
G04 #@! TO.P,U1,2,CHIP_PU*
G04 #@! TO.N,Net-(U1-CHIP_PU)*
X130174999Y-122808999D03*
D19*
G04 #@! TO.P,U1,1,3V3*
G04 #@! TO.N,unconnected-(U1-3V3-Pad1)*
X127634999Y-122808999D03*
G04 #@! TD*
D20*
G04 #@! TO.P,BT1,1,+*
G04 #@! TO.N,Net-(BT1-+)*
X180467000Y-109347000D03*
G04 #@! TO.P,BT1,2,-*
G04 #@! TO.N,GND*
X180467000Y-110347000D03*
D21*
G04 #@! TO.P,BT1,MP*
G04 #@! TO.N,N/C*
X177942000Y-108047000D03*
X177942000Y-111647000D03*
G04 #@! TD*
D22*
G04 #@! TO.P,CB1,1*
G04 #@! TO.N,Net-(U1-CHIP_PU)*
X144399000Y-107950000D03*
X136779000Y-107950000D03*
G04 #@! TO.P,CB1,2*
G04 #@! TO.N,GND*
X144399000Y-113030000D03*
X136779000Y-113030000D03*
G04 #@! TD*
D23*
G04 #@! TO.N,Net-(P1-VCC)*
X159639000Y-103759000D03*
X126873000Y-106807000D03*
G04 #@! TO.N,GND*
X163703000Y-103080500D03*
G04 #@! TO.N,Net-(P1-SCL)*
X171069000Y-101001752D03*
G04 #@! TO.N,Net-(P1-SDA)*
X175252442Y-100709382D03*
G04 #@! TO.N,Net-(P1-SCL)*
X126365000Y-103124000D03*
X132715000Y-99441000D03*
G04 #@! TO.N,Net-(P1-SDA)*
X126238000Y-117729000D03*
X140081000Y-100330000D03*
X126238000Y-100965000D03*
G04 #@! TO.N,GND*
X164592000Y-113030000D03*
G04 #@! TO.N,/5V*
X164592000Y-110744000D03*
G04 #@! TD*
D24*
G04 #@! TO.N,Net-(P1-SCL)*
X169297248Y-99230000D02*
X171069000Y-101001752D01*
X132926000Y-99230000D02*
X169297248Y-99230000D01*
X124841000Y-101600000D02*
X126365000Y-103124000D01*
X125857000Y-99187000D02*
X124841000Y-100203000D01*
X132715000Y-99441000D02*
X132461000Y-99187000D01*
X124841000Y-100203000D02*
X124841000Y-101600000D01*
X132715000Y-99441000D02*
X132926000Y-99230000D01*
X132461000Y-99187000D02*
X125857000Y-99187000D01*
G04 #@! TO.N,Net-(P1-SDA)*
X127000000Y-100203000D02*
X131572000Y-100203000D01*
X126238000Y-100965000D02*
X127000000Y-100203000D01*
X129032000Y-102743000D02*
X129032000Y-100203000D01*
X125349000Y-116840000D02*
X125349000Y-106426000D01*
X125349000Y-106426000D02*
X129032000Y-102743000D01*
X126238000Y-117729000D02*
X125349000Y-116840000D01*
X129032000Y-100203000D02*
X131572000Y-100203000D01*
X141731500Y-101980500D02*
X140081000Y-100330000D01*
X168909500Y-101980500D02*
X141731500Y-101980500D01*
X173726824Y-102235000D02*
X169164000Y-102235000D01*
X169164000Y-102235000D02*
X168909500Y-101980500D01*
X175252442Y-100709382D02*
X173726824Y-102235000D01*
D25*
G04 #@! TO.N,GND*
X163068000Y-111506000D02*
X164592000Y-113030000D01*
X163068000Y-103715500D02*
X163068000Y-111506000D01*
X163703000Y-103080500D02*
X163068000Y-103715500D01*
D24*
X173059028Y-108817500D02*
X173355000Y-108817500D01*
X172021528Y-109855000D02*
X173059028Y-108817500D01*
X171460500Y-109855000D02*
X172021528Y-109855000D01*
G04 #@! TO.N,/5V*
X166722500Y-110805000D02*
X169185500Y-110805000D01*
X166640000Y-110722500D02*
X166722500Y-110805000D01*
X167894000Y-110617000D02*
X168082000Y-110805000D01*
X167878000Y-108569000D02*
X167894000Y-108585000D01*
X167894000Y-108585000D02*
X167894000Y-110617000D01*
X166640000Y-108569000D02*
X167878000Y-108569000D01*
X168082000Y-110805000D02*
X169185500Y-110805000D01*
G04 #@! TO.N,GND*
X178675949Y-112903000D02*
X173101000Y-112903000D01*
X173101000Y-112903000D02*
X171958000Y-114046000D01*
X171958000Y-114046000D02*
X170339000Y-114046000D01*
X180467000Y-111111949D02*
X178675949Y-112903000D01*
X180467000Y-110347000D02*
X180467000Y-111111949D01*
X170339000Y-114046000D02*
X169069000Y-112776000D01*
G04 #@! TO.N,Net-(BT1-+)*
X173267500Y-110805000D02*
X173355000Y-110892500D01*
X171460500Y-110805000D02*
X173267500Y-110805000D01*
G04 #@! TO.N,Net-(U2-PROG)*
X169185500Y-109495500D02*
X169185500Y-108905000D01*
X169545000Y-109855000D02*
X169185500Y-109495500D01*
X170348000Y-111293000D02*
X170348000Y-110150000D01*
X170348000Y-110150000D02*
X170053000Y-109855000D01*
X171323000Y-112268000D02*
X170348000Y-111293000D01*
X170053000Y-109855000D02*
X169545000Y-109855000D01*
X171323000Y-112522000D02*
X171323000Y-112268000D01*
X171069000Y-112776000D02*
X171323000Y-112522000D01*
G04 #@! TO.N,Net-(BT1-+)*
X179843472Y-109347000D02*
X180467000Y-109347000D01*
X173757500Y-110490000D02*
X178700472Y-110490000D01*
X173355000Y-110892500D02*
X173757500Y-110490000D01*
X178700472Y-110490000D02*
X179843472Y-109347000D01*
G04 #@! TO.N,GND*
X181692000Y-109900000D02*
X181245000Y-110347000D01*
X181245000Y-110347000D02*
X180467000Y-110347000D01*
X181692000Y-108921000D02*
X181692000Y-109900000D01*
X178792000Y-109347000D02*
X179542000Y-108597000D01*
X181368000Y-108597000D02*
X181692000Y-108921000D01*
X173884500Y-109347000D02*
X178792000Y-109347000D01*
X173355000Y-108817500D02*
X173884500Y-109347000D01*
X179542000Y-108597000D02*
X181368000Y-108597000D01*
G04 #@! TO.N,Net-(P1-VCC)*
X158750000Y-102870000D02*
X159639000Y-103759000D01*
X141277497Y-102870000D02*
X158750000Y-102870000D01*
X139372497Y-100965000D02*
X141277497Y-102870000D01*
X134239000Y-100965000D02*
X139372497Y-100965000D01*
X133477000Y-101727000D02*
X134239000Y-100965000D01*
X131253000Y-100903000D02*
X131253000Y-101027000D01*
X131953000Y-101727000D02*
X133477000Y-101727000D01*
X130683000Y-101473000D02*
X131253000Y-100903000D01*
X130683000Y-104267000D02*
X130683000Y-101473000D01*
X128143000Y-106807000D02*
X130683000Y-104267000D01*
X126873000Y-106807000D02*
X128143000Y-106807000D01*
X131253000Y-101027000D02*
X131953000Y-101727000D01*
G04 #@! TO.N,Net-(P1-SDA)*
X133981000Y-100080000D02*
X139831000Y-100080000D01*
X139831000Y-100080000D02*
X140081000Y-100330000D01*
X132207000Y-100838000D02*
X133223000Y-100838000D01*
X133223000Y-100838000D02*
X133981000Y-100080000D01*
X131572000Y-100203000D02*
X132207000Y-100838000D01*
G04 #@! TO.N,Net-(P1-SCL)*
X123444000Y-102362000D02*
X123571000Y-102362000D01*
D25*
G04 #@! TO.N,GND*
X164592000Y-113030000D02*
X164846000Y-112776000D01*
X164846000Y-112776000D02*
X169069000Y-112776000D01*
D24*
G04 #@! TO.N,/5V*
X164613500Y-110722500D02*
X164592000Y-110744000D01*
X166640000Y-110722500D02*
X164613500Y-110722500D01*
G04 #@! TO.N,GND*
X166661500Y-112776000D02*
X166640000Y-112797500D01*
G04 #@! TO.N,Net-(D2-A)*
X166751000Y-106680000D02*
X166640000Y-106569000D01*
X169298000Y-106680000D02*
X166751000Y-106680000D01*
G04 #@! TO.N,Net-(D2-K)*
X171460500Y-106792500D02*
X171348000Y-106680000D01*
X171460500Y-108905000D02*
X171460500Y-106792500D01*
G04 #@! TD*
D26*
X118285000Y-95885000D02*
X182685000Y-95885000D01*
X118285000Y-124285000D02*
X118285000Y-95885000D01*
X143789000Y-110465000D02*
G75*
G03*
X143789000Y-110465000I-3200000J0D01*
G01*
X118285000Y-124285000D02*
X182685000Y-124285000D01*
X182685000Y-124285000D02*
X182685000Y-95885000D01*
M02*
